{
    "asset" : {
        "generator" : "Khronos glTF Blender I/O v1.2.75",
        "version" : "2.0"
    },
    "scene" : 0,
    "scenes" : [
        {
            "name" : "Scene",
            "nodes" : [
                0
            ]
        }
    ],
    "nodes" : [
        {
            "mesh" : 0,
            "name" : "Cube.001",
            "rotation" : [
                0.7071068286895752,
                0,
                0,
                0.7071067094802856
            ]
        }
    ],
    "materials" : [
        {
            "doubleSided" : true,
            "emissiveFactor" : [
                0,
                0,
                0
            ],
            "name" : "Material.001",
            "pbrMetallicRoughness" : {
                "baseColorFactor" : [
                    0.748399019241333,
                    0.748399019241333,
                    0.748399019241333,
                    1
                ],
                "metallicFactor" : 0,
                "roughnessFactor" : 0.5
            }
        },
        {
            "doubleSided" : true,
            "emissiveFactor" : [
                0,
                0,
                0
            ],
            "name" : "Material.002",
            "pbrMetallicRoughness" : {
                "baseColorFactor" : [
                    0.013410000130534172,
                    0.013410000130534172,
                    0.013410000130534172,
                    1
                ],
                "metallicFactor" : 0,
                "roughnessFactor" : 0.5
            }
        },
        {
            "doubleSided" : true,
            "emissiveFactor" : [
                0,
                0,
                0
            ],
            "name" : "Material.003",
            "pbrMetallicRoughness" : {
                "baseColorFactor" : [
                    0.800000011920929,
                    0.030581999570131302,
                    0.04616900160908699,
                    1
                ],
                "metallicFactor" : 0,
                "roughnessFactor" : 0.5
            }
        },
        {
            "doubleSided" : true,
            "emissiveFactor" : [
                0,
                0,
                0
            ],
            "name" : "Material.004",
            "pbrMetallicRoughness" : {
                "baseColorFactor" : [
                    0.03740999847650528,
                    0.03740999847650528,
                    0.03740999847650528,
                    1
                ],
                "metallicFactor" : 0,
                "roughnessFactor" : 0.5
            }
        }
    ],
    "meshes" : [
        {
            "name" : "Cube.001",
            "primitives" : [
                {
                    "attributes" : {
                        "POSITION" : 0,
                        "NORMAL" : 1,
                        "TEXCOORD_0" : 2
                    },
                    "indices" : 3,
                    "material" : 0
                },
                {
                    "attributes" : {
                        "POSITION" : 4,
                        "NORMAL" : 5,
                        "TEXCOORD_0" : 6
                    },
                    "indices" : 7,
                    "material" : 1
                },
                {
                    "attributes" : {
                        "POSITION" : 8,
                        "NORMAL" : 9,
                        "TEXCOORD_0" : 10
                    },
                    "indices" : 11,
                    "material" : 2
                },
                {
                    "attributes" : {
                        "POSITION" : 12,
                        "NORMAL" : 13,
                        "TEXCOORD_0" : 14
                    },
                    "indices" : 15,
                    "material" : 3
                }
            ]
        }
    ],
    "accessors" : [
        {
            "bufferView" : 0,
            "componentType" : 5126,
            "count" : 1820,
            "max" : [
                7.17598819732666,
                6.827651023864746,
                0.9911109805107117
            ],
            "min" : [
                -7.17598819732666,
                -7.060214996337891,
                -0.9911109805107117
            ],
            "type" : "VEC3"
        },
        {
            "bufferView" : 1,
            "componentType" : 5126,
            "count" : 1820,
            "type" : "VEC3"
        },
        {
            "bufferView" : 2,
            "componentType" : 5126,
            "count" : 1820,
            "type" : "VEC2"
        },
        {
            "bufferView" : 3,
            "componentType" : 5123,
            "count" : 8844,
            "type" : "SCALAR"
        },
        {
            "bufferView" : 4,
            "componentType" : 5126,
            "count" : 88,
            "max" : [
                0.9897980093955994,
                5.9440460205078125,
                -0.38192400336265564
            ],
            "min" : [
                -0.9897980093955994,
                3.2096059322357178,
                -0.6851329803466797
            ],
            "type" : "VEC3"
        },
        {
            "bufferView" : 5,
            "componentType" : 5126,
            "count" : 88,
            "type" : "VEC3"
        },
        {
            "bufferView" : 6,
            "componentType" : 5126,
            "count" : 88,
            "type" : "VEC2"
        },
        {
            "bufferView" : 7,
            "componentType" : 5123,
            "count" : 132,
            "type" : "SCALAR"
        },
        {
            "bufferView" : 8,
            "componentType" : 5126,
            "count" : 240,
            "max" : [
                7.17598819732666,
                1.1150130033493042,
                0.20572000741958618
            ],
            "min" : [
                -7.17598819732666,
                -7.712396144866943,
                -2.5606069564819336
            ],
            "type" : "VEC3"
        },
        {
            "bufferView" : 9,
            "componentType" : 5126,
            "count" : 240,
            "type" : "VEC3"
        },
        {
            "bufferView" : 10,
            "componentType" : 5126,
            "count" : 240,
            "type" : "VEC2"
        },
        {
            "bufferView" : 11,
            "componentType" : 5123,
            "count" : 1188,
            "type" : "SCALAR"
        },
        {
            "bufferView" : 12,
            "componentType" : 5126,
            "count" : 16973,
            "max" : [
                5.440451145172119,
                1.9184609651565552,
                1.2136139869689941
            ],
            "min" : [
                -5.440451145172119,
                -4.80775785446167,
                0.018688999116420746
            ],
            "type" : "VEC3"
        },
        {
            "bufferView" : 13,
            "componentType" : 5126,
            "count" : 16973,
            "type" : "VEC3"
        },
        {
            "bufferView" : 14,
            "componentType" : 5126,
            "count" : 16973,
            "type" : "VEC2"
        },
        {
            "bufferView" : 15,
            "componentType" : 5123,
            "count" : 26292,
            "type" : "SCALAR"
        }
    ],
    "bufferViews" : [
        {
            "buffer" : 0,
            "byteLength" : 21840,
            "byteOffset" : 0
        },
        {
            "buffer" : 0,
            "byteLength" : 21840,
            "byteOffset" : 21840
        },
        {
            "buffer" : 0,
            "byteLength" : 14560,
            "byteOffset" : 43680
        },
        {
            "buffer" : 0,
            "byteLength" : 17688,
            "byteOffset" : 58240
        },
        {
            "buffer" : 0,
            "byteLength" : 1056,
            "byteOffset" : 75928
        },
        {
            "buffer" : 0,
            "byteLength" : 1056,
            "byteOffset" : 76984
        },
        {
            "buffer" : 0,
            "byteLength" : 704,
            "byteOffset" : 78040
        },
        {
            "buffer" : 0,
            "byteLength" : 264,
            "byteOffset" : 78744
        },
        {
            "buffer" : 0,
            "byteLength" : 2880,
            "byteOffset" : 79008
        },
        {
            "buffer" : 0,
            "byteLength" : 2880,
            "byteOffset" : 81888
        },
        {
            "buffer" : 0,
            "byteLength" : 1920,
            "byteOffset" : 84768
        },
        {
            "buffer" : 0,
            "byteLength" : 2376,
            "byteOffset" : 86688
        },
        {
            "buffer" : 0,
            "byteLength" : 203676,
            "byteOffset" : 89064
        },
        {
            "buffer" : 0,
            "byteLength" : 203676,
            "byteOffset" : 292740
        },
        {
            "buffer" : 0,
            "byteLength" : 135784,
            "byteOffset" : 496416
        },
        {
            "buffer" : 0,
            "byteLength" : 52584,
            "byteOffset" : 632200
        }
    ],
    "buffers" : [
        {
            "byteLength" : 684784,
            "uri" : "data:application/octet-stream;base64,"
        }
    ]
}
