{
    "asset" : {
        "generator" : "Khronos glTF Blender I/O v1.0.5",
        "version" : "2.0"
    },
    "scene" : 0,
    "scenes" : [
        {
            "name" : "Scene",
            "nodes" : [
                0,
                1,
                2,
                3,
                4
            ]
        }
    ],
    "nodes" : [
        {
            "name" : "Light",
            "rotation" : [
                0.16907575726509094,
                0.7558803558349609,
                -0.27217137813568115,
                0.570947527885437
            ],
            "translation" : [
                4.076245307922363,
                5.903861999511719,
                -1.0054539442062378
            ]
        },
        {
            "name" : "Camera",
            "rotation" : [
                0.483536034822464,
                0.33687159419059753,
                -0.20870360732078552,
                0.7804827094078064
            ],
            "translation" : [
                7.358891487121582,
                4.958309173583984,
                6.925790786743164
            ]
        },
        {
            "mesh" : 0,
            "name" : "Sphere",
            "translation" : [
                0,
                0.7780917882919312,
                0
            ]
        },
        {
            "name" : "Lamp",
            "rotation" : [
                0.16907548904418945,
                0.75588059425354,
                -0.2721709609031677,
                0.5709474682807922
            ],
            "translation" : [
                1,
                1,
                3.993269920349121
            ]
        },
        {
            "name" : "Camera.001",
            "rotation" : [
                0.483536034822464,
                0.3368716239929199,
                -0.20870371162891388,
                0.7804826498031616
            ],
            "translation" : [
                7.481131553649902,
                5.34366512298584,
                6.507639408111572
            ]
        }
    ],
    "animations" : [
        {
            "channels" : [
                {
                    "sampler" : 0,
                    "target" : {
                        "node" : 2,
                        "path" : "translation"
                    }
                },
                {
                    "sampler" : 1,
                    "target" : {
                        "node" : 2,
                        "path" : "rotation"
                    }
                },
                {
                    "sampler" : 2,
                    "target" : {
                        "node" : 2,
                        "path" : "scale"
                    }
                }
            ],
            "name" : "Sphere|Sphere|Action|Sphere|Action",
            "samplers" : [
                {
                    "input" : 3,
                    "interpolation" : "LINEAR",
                    "output" : 4
                },
                {
                    "input" : 3,
                    "interpolation" : "LINEAR",
                    "output" : 5
                },
                {
                    "input" : 3,
                    "interpolation" : "LINEAR",
                    "output" : 6
                }
            ]
        }
    ],
    "materials" : [
        {
            "doubleSided" : true,
            "name" : "Material.002",
            "pbrMetallicRoughness" : {
                "baseColorFactor" : [
                    0.8000000715255737,
                    0.02317003160715103,
                    0.02435842715203762,
                    1
                ],
                "metallicFactor" : 0,
                "roughnessFactor" : 0.690034806728363
            }
        }
    ],
    "meshes" : [
        {
            "name" : "Sphere.001",
            "primitives" : [
                {
                    "attributes" : {
                        "POSITION" : 0,
                        "NORMAL" : 1
                    },
                    "indices" : 2,
                    "material" : 0
                }
            ]
        }
    ],
    "accessors" : [
        {
            "bufferView" : 0,
            "componentType" : 5126,
            "count" : 3359,
            "max" : [
                0.9544535875320435,
                2.169938087463379,
                0.9565141201019287
            ],
            "min" : [
                -0.9540693759918213,
                -0.7000613212585449,
                -0.9565122127532959
            ],
            "type" : "VEC3"
        },
        {
            "bufferView" : 1,
            "componentType" : 5126,
            "count" : 3359,
            "type" : "VEC3"
        },
        {
            "bufferView" : 2,
            "componentType" : 5123,
            "count" : 15129,
            "type" : "SCALAR"
        },
        {
            "bufferView" : 3,
            "componentType" : 5126,
            "count" : 26,
            "max" : [
                1.0833333333333333
            ],
            "min" : [
                0.041666666666666664
            ],
            "type" : "SCALAR"
        },
        {
            "bufferView" : 4,
            "componentType" : 5126,
            "count" : 26,
            "type" : "VEC3"
        },
        {
            "bufferView" : 5,
            "componentType" : 5126,
            "count" : 26,
            "type" : "VEC4"
        },
        {
            "bufferView" : 6,
            "componentType" : 5126,
            "count" : 26,
            "type" : "VEC3"
        }
    ],
    "bufferViews" : [
        {
            "buffer" : 0,
            "byteLength" : 40308,
            "byteOffset" : 0
        },
        {
            "buffer" : 0,
            "byteLength" : 40308,
            "byteOffset" : 40308
        },
        {
            "buffer" : 0,
            "byteLength" : 30258,
            "byteOffset" : 80616
        },
        {
            "buffer" : 0,
            "byteLength" : 104,
            "byteOffset" : 110876
        },
        {
            "buffer" : 0,
            "byteLength" : 312,
            "byteOffset" : 110980
        },
        {
            "buffer" : 0,
            "byteLength" : 416,
            "byteOffset" : 111292
        },
        {
            "buffer" : 0,
            "byteLength" : 312,
            "byteOffset" : 111708
        }
    ],
    "buffers" : [
        {
            "byteLength" : 112020,
            "uri" : "data:application/octet-stream;base64,"
        }
    ]
}
