{
    "asset" : {
        "generator" : "Khronos glTF Blender I/O v1.2.75",
        "version" : "2.0"
    },
    "scene" : 0,
    "scenes" : [
        {
            "name" : "Scene",
            "nodes" : [
                0,
                1
            ]
        }
    ],
    "nodes" : [
        {
            "mesh" : 0,
            "name" : "Cube.001",
            "rotation" : [
                0.7071068286895752,
                0,
                0,
                0.7071067094802856
            ]
        },
        {
            "mesh" : 1,
            "name" : "Cube.002",
            "rotation" : [
                0.7071068286895752,
                0,
                0,
                0.7071067094802856
            ]
        }
    ],
    "materials" : [
        {
            "doubleSided" : true,
            "emissiveFactor" : [
                0,
                0,
                0
            ],
            "name" : "Material.005",
            "pbrMetallicRoughness" : {
                "baseColorFactor" : [
                    0.11068899929523468,
                    0.11068899929523468,
                    0.11068899929523468,
                    1
                ],
                "metallicFactor" : 0,
                "roughnessFactor" : 0.5
            }
        }
    ],
    "meshes" : [
        {
            "name" : "Cube.001",
            "primitives" : [
                {
                    "attributes" : {
                        "POSITION" : 0,
                        "NORMAL" : 1,
                        "TEXCOORD_0" : 2
                    },
                    "indices" : 3,
                    "material" : 0
                }
            ]
        },
        {
            "name" : "Cube.002",
            "primitives" : [
                {
                    "attributes" : {
                        "POSITION" : 4,
                        "NORMAL" : 5,
                        "TEXCOORD_0" : 6
                    },
                    "indices" : 7,
                    "material" : 0
                }
            ]
        }
    ],
    "accessors" : [
        {
            "bufferView" : 0,
            "componentType" : 5126,
            "count" : 7896,
            "max" : [
                50.9604377746582,
                99.78713989257812,
                0.10140100121498108
            ],
            "min" : [
                -67.36332702636719,
                -119.10621643066406,
                -1.035385012626648
            ],
            "type" : "VEC3"
        },
        {
            "bufferView" : 1,
            "componentType" : 5126,
            "count" : 7896,
            "type" : "VEC3"
        },
        {
            "bufferView" : 2,
            "componentType" : 5126,
            "count" : 7896,
            "type" : "VEC2"
        },
        {
            "bufferView" : 3,
            "componentType" : 5123,
            "count" : 11844,
            "type" : "SCALAR"
        },
        {
            "bufferView" : 4,
            "componentType" : 5126,
            "count" : 7896,
            "max" : [
                34.99409484863281,
                83.82148742675781,
                0.04470700025558472
            ],
            "min" : [
                -51.398956298828125,
                -103.13986206054688,
                -0.93020099401474
            ],
            "type" : "VEC3"
        },
        {
            "bufferView" : 5,
            "componentType" : 5126,
            "count" : 7896,
            "type" : "VEC3"
        },
        {
            "bufferView" : 6,
            "componentType" : 5126,
            "count" : 7896,
            "type" : "VEC2"
        },
        {
            "bufferView" : 7,
            "componentType" : 5123,
            "count" : 11844,
            "type" : "SCALAR"
        }
    ],
    "bufferViews" : [
        {
            "buffer" : 0,
            "byteLength" : 94752,
            "byteOffset" : 0
        },
        {
            "buffer" : 0,
            "byteLength" : 94752,
            "byteOffset" : 94752
        },
        {
            "buffer" : 0,
            "byteLength" : 63168,
            "byteOffset" : 189504
        },
        {
            "buffer" : 0,
            "byteLength" : 23688,
            "byteOffset" : 252672
        },
        {
            "buffer" : 0,
            "byteLength" : 94752,
            "byteOffset" : 276360
        },
        {
            "buffer" : 0,
            "byteLength" : 94752,
            "byteOffset" : 371112
        },
        {
            "buffer" : 0,
            "byteLength" : 63168,
            "byteOffset" : 465864
        },
        {
            "buffer" : 0,
            "byteLength" : 23688,
            "byteOffset" : 529032
        }
    ],
    "buffers" : [
        {
            "byteLength" : 552720,
            "uri" : "data:application/octet-stream;base64,"
        }
    ]
}
