{
    "asset" : {
        "generator" : "Khronos glTF Blender I/O v1.2.75",
        "version" : "2.0"
    },
    "scene" : 0,
    "scenes" : [
        {
            "name" : "Scene",
            "nodes" : [
                0,
                1,
                2
            ]
        }
    ],
    "nodes" : [
        {
            "name" : "Light",
            "rotation" : [
                0.16907575726509094,
                0.7558803558349609,
                -0.27217137813568115,
                0.570947527885437
            ],
            "translation" : [
                4.076245307922363,
                5.903861999511719,
                -1.0054539442062378
            ]
        },
        {
            "name" : "Camera",
            "rotation" : [
                0.483536034822464,
                0.33687159419059753,
                -0.20870360732078552,
                0.7804827094078064
            ],
            "translation" : [
                7.358891487121582,
                4.958309173583984,
                6.925790786743164
            ]
        },
        {
            "mesh" : 0,
            "name" : "Cube.057_Cube.067",
            "rotation" : [
                0.7071068286895752,
                0,
                0,
                0.7071067094802856
            ]
        }
    ],
    "materials" : [
        {
            "doubleSided" : true,
            "emissiveFactor" : [
                0,
                0,
                0
            ],
            "name" : "Material.026",
            "pbrMetallicRoughness" : {
                "baseColorFactor" : [
                    0.800000011920929,
                    0.027536999434232712,
                    0.030876999720931053,
                    1
                ],
                "metallicFactor" : 0,
                "roughnessFactor" : 0.5
            }
        },
        {
            "doubleSided" : true,
            "emissiveFactor" : [
                0,
                0,
                0
            ],
            "name" : "Material.027",
            "pbrMetallicRoughness" : {
                "baseColorFactor" : [
                    0.800000011920929,
                    0.48420101404190063,
                    0.25663599371910095,
                    1
                ],
                "metallicFactor" : 0,
                "roughnessFactor" : 0.5
            }
        },
        {
            "doubleSided" : true,
            "emissiveFactor" : [
                0,
                0,
                0
            ],
            "name" : "Material.028",
            "pbrMetallicRoughness" : {
                "baseColorFactor" : [
                    0.32150501012802124,
                    0.38453999161720276,
                    0.42002299427986145,
                    1
                ],
                "metallicFactor" : 0,
                "roughnessFactor" : 0.5
            }
        }
    ],
    "meshes" : [
        {
            "name" : "Cube.057_Cube.067",
            "primitives" : [
                {
                    "attributes" : {
                        "POSITION" : 0,
                        "NORMAL" : 1,
                        "TEXCOORD_0" : 2
                    },
                    "indices" : 3,
                    "material" : 0
                },
                {
                    "attributes" : {
                        "POSITION" : 4,
                        "NORMAL" : 5,
                        "TEXCOORD_0" : 6
                    },
                    "indices" : 7,
                    "material" : 1
                },
                {
                    "attributes" : {
                        "POSITION" : 8,
                        "NORMAL" : 9,
                        "TEXCOORD_0" : 10
                    },
                    "indices" : 11,
                    "material" : 2
                }
            ]
        }
    ],
    "accessors" : [
        {
            "bufferView" : 0,
            "componentType" : 5126,
            "count" : 1878,
            "max" : [
                4.344001293182373,
                4.342841148376465,
                0.07468414306640625
            ],
            "min" : [
                -2.6899290084838867,
                -2.439116954803467,
                -6.715076923370361
            ],
            "type" : "VEC3"
        },
        {
            "bufferView" : 1,
            "componentType" : 5126,
            "count" : 1878,
            "type" : "VEC3"
        },
        {
            "bufferView" : 2,
            "componentType" : 5126,
            "count" : 1878,
            "type" : "VEC2"
        },
        {
            "bufferView" : 3,
            "componentType" : 5123,
            "count" : 2184,
            "type" : "SCALAR"
        },
        {
            "bufferView" : 4,
            "componentType" : 5126,
            "count" : 1667,
            "max" : [
                4.324362754821777,
                4.316356658935547,
                0.07468414306640625
            ],
            "min" : [
                -2.6769652366638184,
                -2.493028163909912,
                -6.04456090927124
            ],
            "type" : "VEC3"
        },
        {
            "bufferView" : 5,
            "componentType" : 5126,
            "count" : 1667,
            "type" : "VEC3"
        },
        {
            "bufferView" : 6,
            "componentType" : 5126,
            "count" : 1667,
            "type" : "VEC2"
        },
        {
            "bufferView" : 7,
            "componentType" : 5123,
            "count" : 1728,
            "type" : "SCALAR"
        },
        {
            "bufferView" : 8,
            "componentType" : 5126,
            "count" : 96,
            "max" : [
                3.037548303604126,
                3.6415977478027344,
                0.07468414306640625
            ],
            "min" : [
                -2.4223451614379883,
                -2.186903476715088,
                -6.6308088302612305
            ],
            "type" : "VEC3"
        },
        {
            "bufferView" : 9,
            "componentType" : 5126,
            "count" : 96,
            "type" : "VEC3"
        },
        {
            "bufferView" : 10,
            "componentType" : 5126,
            "count" : 96,
            "type" : "VEC2"
        },
        {
            "bufferView" : 11,
            "componentType" : 5123,
            "count" : 108,
            "type" : "SCALAR"
        }
    ],
    "bufferViews" : [
        {
            "buffer" : 0,
            "byteLength" : 22536,
            "byteOffset" : 0
        },
        {
            "buffer" : 0,
            "byteLength" : 22536,
            "byteOffset" : 22536
        },
        {
            "buffer" : 0,
            "byteLength" : 15024,
            "byteOffset" : 45072
        },
        {
            "buffer" : 0,
            "byteLength" : 4368,
            "byteOffset" : 60096
        },
        {
            "buffer" : 0,
            "byteLength" : 20004,
            "byteOffset" : 64464
        },
        {
            "buffer" : 0,
            "byteLength" : 20004,
            "byteOffset" : 84468
        },
        {
            "buffer" : 0,
            "byteLength" : 13336,
            "byteOffset" : 104472
        },
        {
            "buffer" : 0,
            "byteLength" : 3456,
            "byteOffset" : 117808
        },
        {
            "buffer" : 0,
            "byteLength" : 1152,
            "byteOffset" : 121264
        },
        {
            "buffer" : 0,
            "byteLength" : 1152,
            "byteOffset" : 122416
        },
        {
            "buffer" : 0,
            "byteLength" : 768,
            "byteOffset" : 123568
        },
        {
            "buffer" : 0,
            "byteLength" : 216,
            "byteOffset" : 124336
        }
    ],
    "buffers" : [
        {
            "byteLength" : 124552,
            "uri" : "data:application/octet-stream;base64,"
        }
    ]
}
