{
    "asset" : {
        "generator" : "Khronos glTF Blender I/O v1.5.17",
        "version" : "2.0"
    },
    "scene" : 0,
    "scenes" : [
        {
            "name" : "Scene",
            "nodes" : [
                0,
                1,
                2
            ]
        }
    ],
    "nodes" : [
        {
            "name" : "Lamp",
            "rotation" : [
                0.16907575726509094,
                0.7558803558349609,
                -0.27217137813568115,
                0.570947527885437
            ],
            "translation" : [
                3.8235907554626465,
                3.075037717819214,
                0.8795667886734009
            ]
        },
        {
            "name" : "Camera",
            "rotation" : [
                0.5081924796104431,
                0.39922523498535156,
                -0.2868991196155548,
                0.707141101360321
            ],
            "translation" : [
                12.945446014404297,
                4.996927261352539,
                8.76048755645752
            ]
        },
        {
            "mesh" : 0,
            "name" : "Circle.001",
            "scale" : [
                2.1585988998413086,
                2.1585988998413086,
                2.1585988998413086
            ]
        }
    ],
    "materials" : [
        {
            "doubleSided" : true,
            "name" : "Material.004",
            "pbrMetallicRoughness" : {
                "baseColorFactor" : [
                    0.800000011920929,
                    0.15521100163459778,
                    0,
                    1
                ],
                "metallicFactor" : 0,
                "roughnessFactor" : 0
            }
        },
        {
            "doubleSided" : true,
            "name" : "Material.003",
            "pbrMetallicRoughness" : {
                "baseColorFactor" : [
                    0,
                    0,
                    0,
                    1
                ],
                "metallicFactor" : 0,
                "roughnessFactor" : 0
            }
        },
        {
            "doubleSided" : true,
            "name" : "Material.002",
            "pbrMetallicRoughness" : {
                "baseColorFactor" : [
                    1,
                    0.9906836152076721,
                    0.8547794222831726,
                    1
                ],
                "metallicFactor" : 0,
                "roughnessFactor" : 0
            }
        },
        {
            "doubleSided" : true,
            "name" : "Material.001",
            "pbrMetallicRoughness" : {
                "baseColorFactor" : [
                    1,
                    0.8071165084838867,
                    0,
                    1
                ],
                "metallicFactor" : 0,
                "roughnessFactor" : 0
            }
        }
    ],
    "meshes" : [
        {
            "name" : "Circle.011",
            "primitives" : [
                {
                    "attributes" : {
                        "POSITION" : 0,
                        "NORMAL" : 1,
                        "COLOR_0" : 2
                    },
                    "indices" : 3,
                    "material" : 0
                },
                {
                    "attributes" : {
                        "POSITION" : 4,
                        "NORMAL" : 5,
                        "COLOR_0" : 6
                    },
                    "indices" : 7,
                    "material" : 1
                },
                {
                    "attributes" : {
                        "POSITION" : 8,
                        "NORMAL" : 9,
                        "COLOR_0" : 10
                    },
                    "indices" : 11,
                    "material" : 2
                },
                {
                    "attributes" : {
                        "POSITION" : 12,
                        "NORMAL" : 13,
                        "COLOR_0" : 14
                    },
                    "indices" : 15,
                    "material" : 3
                }
            ]
        }
    ],
    "accessors" : [
        {
            "bufferView" : 0,
            "componentType" : 5126,
            "count" : 1014,
            "max" : [
                0.845082700252533,
                -0.06808476895093918,
                0.5339716076850891
            ],
            "min" : [
                0.16418205201625824,
                -0.41602519154548645,
                -0.5339716076850891
            ],
            "type" : "VEC3"
        },
        {
            "bufferView" : 1,
            "componentType" : 5126,
            "count" : 1014,
            "type" : "VEC3"
        },
        {
            "bufferView" : 2,
            "componentType" : 5123,
            "count" : 1014,
            "normalized" : true,
            "type" : "VEC4"
        },
        {
            "bufferView" : 3,
            "componentType" : 5123,
            "count" : 5616,
            "type" : "SCALAR"
        },
        {
            "bufferView" : 4,
            "componentType" : 5126,
            "count" : 32,
            "max" : [
                0.4068186283111572,
                0.10859228670597076,
                0.27109280228614807
            ],
            "min" : [
                0.3440451920032501,
                0.010891295969486237,
                -0.27109280228614807
            ],
            "type" : "VEC3"
        },
        {
            "bufferView" : 5,
            "componentType" : 5126,
            "count" : 32,
            "type" : "VEC3"
        },
        {
            "bufferView" : 6,
            "componentType" : 5123,
            "count" : 32,
            "normalized" : true,
            "type" : "VEC4"
        },
        {
            "bufferView" : 7,
            "componentType" : 5123,
            "count" : 168,
            "type" : "SCALAR"
        },
        {
            "bufferView" : 8,
            "componentType" : 5126,
            "count" : 2266,
            "max" : [
                0.4326542317867279,
                0.23875923454761505,
                0.5087182521820068
            ],
            "min" : [
                0.028888341039419174,
                -0.12102954089641571,
                -0.5087182521820068
            ],
            "type" : "VEC3"
        },
        {
            "bufferView" : 9,
            "componentType" : 5126,
            "count" : 2266,
            "type" : "VEC3"
        },
        {
            "bufferView" : 10,
            "componentType" : 5123,
            "count" : 2266,
            "normalized" : true,
            "type" : "VEC4"
        },
        {
            "bufferView" : 11,
            "componentType" : 5123,
            "count" : 13800,
            "type" : "SCALAR"
        },
        {
            "bufferView" : 12,
            "componentType" : 5126,
            "count" : 1574,
            "max" : [
                0.4425579905509949,
                0.3296455144882202,
                0.7525980472564697
            ],
            "min" : [
                -0.9213971495628357,
                -0.7101235389709473,
                -0.7525980472564697
            ],
            "type" : "VEC3"
        },
        {
            "bufferView" : 13,
            "componentType" : 5126,
            "count" : 1574,
            "type" : "VEC3"
        },
        {
            "bufferView" : 14,
            "componentType" : 5123,
            "count" : 1574,
            "normalized" : true,
            "type" : "VEC4"
        },
        {
            "bufferView" : 15,
            "componentType" : 5123,
            "count" : 9084,
            "type" : "SCALAR"
        }
    ],
    "bufferViews" : [
        {
            "buffer" : 0,
            "byteLength" : 12168,
            "byteOffset" : 0
        },
        {
            "buffer" : 0,
            "byteLength" : 12168,
            "byteOffset" : 12168
        },
        {
            "buffer" : 0,
            "byteLength" : 8112,
            "byteOffset" : 24336
        },
        {
            "buffer" : 0,
            "byteLength" : 11232,
            "byteOffset" : 32448
        },
        {
            "buffer" : 0,
            "byteLength" : 384,
            "byteOffset" : 43680
        },
        {
            "buffer" : 0,
            "byteLength" : 384,
            "byteOffset" : 44064
        },
        {
            "buffer" : 0,
            "byteLength" : 256,
            "byteOffset" : 44448
        },
        {
            "buffer" : 0,
            "byteLength" : 336,
            "byteOffset" : 44704
        },
        {
            "buffer" : 0,
            "byteLength" : 27192,
            "byteOffset" : 45040
        },
        {
            "buffer" : 0,
            "byteLength" : 27192,
            "byteOffset" : 72232
        },
        {
            "buffer" : 0,
            "byteLength" : 18128,
            "byteOffset" : 99424
        },
        {
            "buffer" : 0,
            "byteLength" : 27600,
            "byteOffset" : 117552
        },
        {
            "buffer" : 0,
            "byteLength" : 18888,
            "byteOffset" : 145152
        },
        {
            "buffer" : 0,
            "byteLength" : 18888,
            "byteOffset" : 164040
        },
        {
            "buffer" : 0,
            "byteLength" : 12592,
            "byteOffset" : 182928
        },
        {
            "buffer" : 0,
            "byteLength" : 18168,
            "byteOffset" : 195520
        }
    ],
    "buffers" : [
        {
            "byteLength" : 213688,
            "uri" : "data:application/octet-stream;base64,"
        }
    ]
}
