{
    "asset" : {
        "generator" : "Khronos glTF Blender I/O v1.2.75",
        "version" : "2.0"
    },
    "scene" : 0,
    "scenes" : [
        {
            "name" : "Scene",
            "nodes" : [
                0
            ]
        }
    ],
    "nodes" : [
        {
            "mesh" : 0,
            "name" : "14056_Bottle_of_Rum_v1_L2",
            "rotation" : [
                0.004286675248295069,
                0,
                0,
                0.9999908208847046
            ]
        }
    ],
    "materials" : [
        {
            "doubleSided" : true,
            "emissiveFactor" : [
                0,
                0,
                0
            ],
            "name" : "02___Default",
            "normalTexture" : {
                "index" : 0,
                "texCoord" : 0
            },
            "pbrMetallicRoughness" : {
                "baseColorTexture" : {
                    "index" : 1,
                    "texCoord" : 0
                },
                "metallicFactor" : 0,
                "roughnessFactor" : 0.7483388781547546
            }
        }
    ],
    "meshes" : [
        {
            "name" : "14056_Bottle_of_Rum_v1_L2",
            "primitives" : [
                {
                    "attributes" : {
                        "POSITION" : 0,
                        "NORMAL" : 1,
                        "TEXCOORD_0" : 2
                    },
                    "indices" : 3,
                    "material" : 0
                }
            ]
        }
    ],
    "textures" : [
        {
            "source" : 0
        },
        {
            "source" : 1
        }
    ],
    "images" : [
        {
            "bufferView" : 4,
            "mimeType" : "image/jpeg",
            "name" : "14056_Specular"
        },
        {
            "bufferView" : 5,
            "mimeType" : "image/jpeg",
            "name" : "14056_Diffuse"
        }
    ],
    "accessors" : [
        {
            "bufferView" : 0,
            "componentType" : 5126,
            "count" : 5073,
            "max" : [
                2.346400022506714,
                13.156800270080566,
                2.346400022506714
            ],
            "min" : [
                -2.346400022506714,
                0,
                -2.346400022506714
            ],
            "type" : "VEC3"
        },
        {
            "bufferView" : 1,
            "componentType" : 5126,
            "count" : 5073,
            "type" : "VEC3"
        },
        {
            "bufferView" : 2,
            "componentType" : 5126,
            "count" : 5073,
            "type" : "VEC2"
        },
        {
            "bufferView" : 3,
            "componentType" : 5123,
            "count" : 28416,
            "type" : "SCALAR"
        }
    ],
    "bufferViews" : [
        {
            "buffer" : 0,
            "byteLength" : 60876,
            "byteOffset" : 0
        },
        {
            "buffer" : 0,
            "byteLength" : 60876,
            "byteOffset" : 60876
        },
        {
            "buffer" : 0,
            "byteLength" : 40584,
            "byteOffset" : 121752
        },
        {
            "buffer" : 0,
            "byteLength" : 56832,
            "byteOffset" : 162336
        },
        {
            "buffer" : 0,
            "byteLength" : 277123,
            "byteOffset" : 219168
        },
        {
            "buffer" : 0,
            "byteLength" : 347319,
            "byteOffset" : 496292
        }
    ],
    "buffers" : [
        {
            "byteLength" : 843612,
            "uri" : "data:application/octet-stream;base64,"
        }
    ]
}
