{
    "asset" : {
        "generator" : "Khronos glTF Blender I/O v1.2.75",
        "version" : "2.0"
    },
    "scene" : 0,
    "scenes" : [
        {
            "name" : "Scene",
            "nodes" : [
                0
            ]
        }
    ],
    "nodes" : [
        {
            "mesh" : 0,
            "name" : "group_0_16448250",
            "rotation" : [
                0.7071068286895752,
                0,
                0,
                0.7071067094802856
            ]
        }
    ],
    "materials" : [
        {
            "doubleSided" : true,
            "emissiveFactor" : [
                0,
                0,
                0
            ],
            "name" : "color_16448250",
            "pbrMetallicRoughness" : {
                "baseColorFactor" : [
                    0.6399999856948853,
                    0.6399999856948853,
                    0.6399999856948853,
                    1
                ],
                "metallicFactor" : 0,
                "roughnessFactor" : 0.6732679605484009
            }
        },
        {
            "doubleSided" : true,
            "emissiveFactor" : [
                0,
                0,
                0
            ],
            "name" : "color_15277357",
            "pbrMetallicRoughness" : {
                "baseColorFactor" : [
                    0.6399999856948853,
                    0.6399999856948853,
                    0.6399999856948853,
                    1
                ],
                "metallicFactor" : 0,
                "roughnessFactor" : 0.6732679605484009
            }
        }
    ],
    "meshes" : [
        {
            "name" : "group_0_16448250",
            "primitives" : [
                {
                    "attributes" : {
                        "POSITION" : 0,
                        "NORMAL" : 1
                    },
                    "indices" : 2,
                    "material" : 0
                },
                {
                    "attributes" : {
                        "POSITION" : 3,
                        "NORMAL" : 4
                    },
                    "indices" : 5,
                    "material" : 1
                }
            ]
        }
    ],
    "accessors" : [
        {
            "bufferView" : 0,
            "componentType" : 5126,
            "count" : 1036,
            "max" : [
                0.3159019947052002,
                0.31792300939559937,
                1.1784199476242065
            ],
            "min" : [
                -0.3277510106563568,
                -0.32572999596595764,
                -1.027830958366394
            ],
            "type" : "VEC3"
        },
        {
            "bufferView" : 1,
            "componentType" : 5126,
            "count" : 1036,
            "type" : "VEC3"
        },
        {
            "bufferView" : 2,
            "componentType" : 5123,
            "count" : 5475,
            "type" : "SCALAR"
        },
        {
            "bufferView" : 3,
            "componentType" : 5126,
            "count" : 257,
            "max" : [
                0.09062399715185165,
                0.11678999662399292,
                -0.12402000278234482
            ],
            "min" : [
                -0.13465499877929688,
                -0.10848899930715561,
                -0.3418489992618561
            ],
            "type" : "VEC3"
        },
        {
            "bufferView" : 4,
            "componentType" : 5126,
            "count" : 257,
            "type" : "VEC3"
        },
        {
            "bufferView" : 5,
            "componentType" : 5123,
            "count" : 813,
            "type" : "SCALAR"
        }
    ],
    "bufferViews" : [
        {
            "buffer" : 0,
            "byteLength" : 12432,
            "byteOffset" : 0
        },
        {
            "buffer" : 0,
            "byteLength" : 12432,
            "byteOffset" : 12432
        },
        {
            "buffer" : 0,
            "byteLength" : 10950,
            "byteOffset" : 24864
        },
        {
            "buffer" : 0,
            "byteLength" : 3084,
            "byteOffset" : 35816
        },
        {
            "buffer" : 0,
            "byteLength" : 3084,
            "byteOffset" : 38900
        },
        {
            "buffer" : 0,
            "byteLength" : 1626,
            "byteOffset" : 41984
        }
    ],
    "buffers" : [
        {
            "byteLength" : 43612,
            "uri" : "data:application/octet-stream;base64,"
        }
    ]
}
