{
    "asset" : {
        "generator" : "Khronos glTF Blender I/O v1.2.75",
        "version" : "2.0"
    },
    "scene" : 0,
    "scenes" : [
        {
            "name" : "Scene",
            "nodes" : [
                0
            ]
        }
    ],
    "nodes" : [
        {
            "mesh" : 0,
            "name" : "10491_Bowling Ball_v1_max8_iteration-2",
            "rotation" : [
                0.7071068286895752,
                0,
                0,
                0.7071067094802856
            ]
        }
    ],
    "materials" : [
        {
            "doubleSided" : true,
            "emissiveFactor" : [
                0,
                0,
                0
            ],
            "name" : "01___Default",
            "pbrMetallicRoughness" : {
                "baseColorTexture" : {
                    "index" : 0,
                    "texCoord" : 0
                },
                "metallicFactor" : 0,
                "roughnessFactor" : 0.8945907354354858
            }
        }
    ],
    "meshes" : [
        {
            "name" : "10491_Bowling Ball_v1_max8_iteration-2",
            "primitives" : [
                {
                    "attributes" : {
                        "POSITION" : 0,
                        "NORMAL" : 1,
                        "TEXCOORD_0" : 2
                    },
                    "indices" : 3,
                    "material" : 0
                }
            ]
        }
    ],
    "textures" : [
        {
            "source" : 0
        }
    ],
    "images" : [
        {
            "bufferView" : 4,
            "mimeType" : "image/jpeg",
            "name" : "10491_Bowling-Ball_v1_diffues"
        }
    ],
    "accessors" : [
        {
            "bufferView" : 0,
            "componentType" : 5126,
            "count" : 7538,
            "max" : [
                10.994799613952637,
                22.071699142456055,
                10.986900329589844
            ],
            "min" : [
                -10.98490047454834,
                0.09059999883174896,
                -10.945199966430664
            ],
            "type" : "VEC3"
        },
        {
            "bufferView" : 1,
            "componentType" : 5126,
            "count" : 7538,
            "type" : "VEC3"
        },
        {
            "bufferView" : 2,
            "componentType" : 5126,
            "count" : 7538,
            "type" : "VEC2"
        },
        {
            "bufferView" : 3,
            "componentType" : 5123,
            "count" : 42528,
            "type" : "SCALAR"
        }
    ],
    "bufferViews" : [
        {
            "buffer" : 0,
            "byteLength" : 90456,
            "byteOffset" : 0
        },
        {
            "buffer" : 0,
            "byteLength" : 90456,
            "byteOffset" : 90456
        },
        {
            "buffer" : 0,
            "byteLength" : 60304,
            "byteOffset" : 180912
        },
        {
            "buffer" : 0,
            "byteLength" : 85056,
            "byteOffset" : 241216
        },
        {
            "buffer" : 0,
            "byteLength" : 52825,
            "byteOffset" : 326272
        }
    ],
    "buffers" : [
        {
            "byteLength" : 379100,
            "uri" : "data:application/octet-stream;base64,"
        }
    ]
}
