{
    "asset" : {
        "generator" : "Khronos glTF Blender I/O v1.2.75",
        "version" : "2.0"
    },
    "scene" : 0,
    "scenes" : [
        {
            "name" : "Scene",
            "nodes" : [
                0,
                1,
                2,
                3,
                4,
                5
            ]
        }
    ],
    "nodes" : [
        {
            "name" : "Light",
            "rotation" : [
                0.31484025716781616,
                0.09053628891706467,
                -0.059493593871593475,
                0.9429418444633484
            ],
            "translation" : [
                0.713153600692749,
                5.116922855377197,
                4.065338611602783
            ]
        },
        {
            "name" : "Camera",
            "rotation" : [
                0.48073139786720276,
                -0.34717240929603577,
                0.21508532762527466,
                0.7759556770324707
            ],
            "translation" : [
                -7.469527244567871,
                4.171370029449463,
                6.658433437347412
            ]
        },
        {
            "mesh" : 0,
            "name" : "Cylinder",
            "rotation" : [
                0,
                -0.7366912961006165,
                0,
                0.6762292385101318
            ],
            "scale" : [
                0.8394925594329834,
                1,
                0.8394925594329834
            ],
            "translation" : [
                0.0596010684967041,
                -0.20107389986515045,
                -0.08189892768859863
            ]
        },
        {
            "mesh" : 1,
            "name" : "Cylinder.001",
            "rotation" : [
                0,
                -0.7366912961006165,
                0,
                0.6762292385101318
            ],
            "translation" : [
                -0.9101595878601074,
                -0.30129873752593994,
                -0.17202627658843994
            ]
        },
        {
            "mesh" : 2,
            "name" : "Cylinder.002",
            "rotation" : [
                0,
                -0.7366912961006165,
                0,
                0.6762292385101318
            ],
            "translation" : [
                1.090940237045288,
                0.37639570236206055,
                -0.0010809898376464844
            ]
        },
        {
            "mesh" : 3,
            "name" : "Cube",
            "rotation" : [
                0,
                -0.7366912961006165,
                0,
                0.6762292385101318
            ],
            "scale" : [
                0.05398234724998474,
                0.22155822813510895,
                0.05398234724998474
            ],
            "translation" : [
                -0.030605554580688477,
                0.5333007574081421,
                -0.21045780181884766
            ]
        }
    ],
    "materials" : [
        {
            "doubleSided" : true,
            "emissiveFactor" : [
                0,
                0,
                0
            ],
            "name" : "Material.019",
            "pbrMetallicRoughness" : {
                "baseColorFactor" : [
                    0.005181455984711647,
                    0.36625269055366516,
                    0,
                    1
                ],
                "metallicFactor" : 0,
                "roughnessFactor" : 0.5
            }
        },
        {
            "doubleSided" : true,
            "emissiveFactor" : [
                0,
                0,
                0
            ],
            "name" : "Material.020",
            "pbrMetallicRoughness" : {
                "baseColorFactor" : [
                    0.005181455984711647,
                    0.36625269055366516,
                    0,
                    1
                ],
                "metallicFactor" : 0,
                "roughnessFactor" : 0.5
            }
        },
        {
            "doubleSided" : true,
            "emissiveFactor" : [
                0,
                0,
                0
            ],
            "name" : "Material.021",
            "pbrMetallicRoughness" : {
                "baseColorFactor" : [
                    0.005181455984711647,
                    0.36625269055366516,
                    0,
                    1
                ],
                "metallicFactor" : 0,
                "roughnessFactor" : 0.5
            }
        },
        {
            "doubleSided" : true,
            "emissiveFactor" : [
                0,
                0,
                0
            ],
            "name" : "Material.022",
            "pbrMetallicRoughness" : {
                "baseColorFactor" : [
                    0.8000000715255737,
                    0.24857781827449799,
                    0,
                    1
                ],
                "metallicFactor" : 0,
                "roughnessFactor" : 0.5
            }
        }
    ],
    "meshes" : [
        {
            "name" : "Cylinder.001",
            "primitives" : [
                {
                    "attributes" : {
                        "POSITION" : 0,
                        "NORMAL" : 1,
                        "TEXCOORD_0" : 2
                    },
                    "indices" : 3,
                    "material" : 0
                }
            ]
        },
        {
            "name" : "Cylinder.013",
            "primitives" : [
                {
                    "attributes" : {
                        "POSITION" : 4,
                        "NORMAL" : 5,
                        "TEXCOORD_0" : 6
                    },
                    "indices" : 3,
                    "material" : 1
                }
            ]
        },
        {
            "name" : "Cylinder.014",
            "primitives" : [
                {
                    "attributes" : {
                        "POSITION" : 7,
                        "NORMAL" : 8,
                        "TEXCOORD_0" : 9
                    },
                    "indices" : 3,
                    "material" : 2
                }
            ]
        },
        {
            "name" : "Cube.002",
            "primitives" : [
                {
                    "attributes" : {
                        "POSITION" : 10,
                        "NORMAL" : 11,
                        "TEXCOORD_0" : 12
                    },
                    "indices" : 13,
                    "material" : 3
                }
            ]
        }
    ],
    "accessors" : [
        {
            "bufferView" : 0,
            "componentType" : 5126,
            "count" : 936,
            "max" : [
                0.4440140724182129,
                2.466154098510742,
                0.5196341276168823
            ],
            "min" : [
                -0.620139479637146,
                -0.5786484479904175,
                -0.465518981218338
            ],
            "type" : "VEC3"
        },
        {
            "bufferView" : 1,
            "componentType" : 5126,
            "count" : 936,
            "type" : "VEC3"
        },
        {
            "bufferView" : 2,
            "componentType" : 5126,
            "count" : 936,
            "type" : "VEC2"
        },
        {
            "bufferView" : 3,
            "componentType" : 5123,
            "count" : 3456,
            "type" : "SCALAR"
        },
        {
            "bufferView" : 4,
            "componentType" : 5126,
            "count" : 936,
            "max" : [
                0.1931934952735901,
                1.5625286102294922,
                -0.13904204964637756
            ],
            "min" : [
                -0.20348800718784332,
                0.4346317648887634,
                -0.8617832660675049
            ],
            "type" : "VEC3"
        },
        {
            "bufferView" : 5,
            "componentType" : 5126,
            "count" : 936,
            "type" : "VEC3"
        },
        {
            "bufferView" : 6,
            "componentType" : 5126,
            "count" : 936,
            "type" : "VEC2"
        },
        {
            "bufferView" : 7,
            "componentType" : 5126,
            "count" : 936,
            "max" : [
                0.2034880369901657,
                1.5625286102294922,
                0.8617832660675049
            ],
            "min" : [
                -0.1931934654712677,
                0.4346317648887634,
                0.13904204964637756
            ],
            "type" : "VEC3"
        },
        {
            "bufferView" : 8,
            "componentType" : 5126,
            "count" : 936,
            "type" : "VEC3"
        },
        {
            "bufferView" : 9,
            "componentType" : 5126,
            "count" : 936,
            "type" : "VEC2"
        },
        {
            "bufferView" : 10,
            "componentType" : 5126,
            "count" : 34,
            "max" : [
                0.6581324338912964,
                0.16035276651382446,
                2.376772403717041
            ],
            "min" : [
                -0.6581324338912964,
                -0.16035324335098267,
                -5.183008670806885
            ],
            "type" : "VEC3"
        },
        {
            "bufferView" : 11,
            "componentType" : 5126,
            "count" : 34,
            "type" : "VEC3"
        },
        {
            "bufferView" : 12,
            "componentType" : 5126,
            "count" : 34,
            "type" : "VEC2"
        },
        {
            "bufferView" : 13,
            "componentType" : 5123,
            "count" : 36,
            "type" : "SCALAR"
        }
    ],
    "bufferViews" : [
        {
            "buffer" : 0,
            "byteLength" : 11232,
            "byteOffset" : 0
        },
        {
            "buffer" : 0,
            "byteLength" : 11232,
            "byteOffset" : 11232
        },
        {
            "buffer" : 0,
            "byteLength" : 7488,
            "byteOffset" : 22464
        },
        {
            "buffer" : 0,
            "byteLength" : 6912,
            "byteOffset" : 29952
        },
        {
            "buffer" : 0,
            "byteLength" : 11232,
            "byteOffset" : 36864
        },
        {
            "buffer" : 0,
            "byteLength" : 11232,
            "byteOffset" : 48096
        },
        {
            "buffer" : 0,
            "byteLength" : 7488,
            "byteOffset" : 59328
        },
        {
            "buffer" : 0,
            "byteLength" : 11232,
            "byteOffset" : 66816
        },
        {
            "buffer" : 0,
            "byteLength" : 11232,
            "byteOffset" : 78048
        },
        {
            "buffer" : 0,
            "byteLength" : 7488,
            "byteOffset" : 89280
        },
        {
            "buffer" : 0,
            "byteLength" : 408,
            "byteOffset" : 96768
        },
        {
            "buffer" : 0,
            "byteLength" : 408,
            "byteOffset" : 97176
        },
        {
            "buffer" : 0,
            "byteLength" : 272,
            "byteOffset" : 97584
        },
        {
            "buffer" : 0,
            "byteLength" : 72,
            "byteOffset" : 97856
        }
    ],
    "buffers" : [
        {
            "byteLength" : 97928,
            "uri" : "data:application/octet-stream;base64,"
        }
    ]
}
