{
    "asset" : {
        "generator" : "Khronos glTF Blender I/O v1.2.75",
        "version" : "2.0"
    },
    "scene" : 0,
    "scenes" : [
        {
            "name" : "Scene",
            "nodes" : [
                0
            ]
        }
    ],
    "nodes" : [
        {
            "mesh" : 0,
            "name" : "Plane",
            "rotation" : [
                0.7071068286895752,
                0,
                0,
                0.7071067094802856
            ]
        }
    ],
    "materials" : [
        {
            "doubleSided" : true,
            "emissiveFactor" : [
                0,
                0,
                0
            ],
            "name" : "Material.001",
            "pbrMetallicRoughness" : {
                "baseColorFactor" : [
                    0.8307700157165527,
                    0.520995020866394,
                    0.13563300669193268,
                    1
                ],
                "metallicFactor" : 0,
                "roughnessFactor" : 0.5
            }
        },
        {
            "doubleSided" : true,
            "emissiveFactor" : [
                0,
                0,
                0
            ],
            "name" : "Material.002",
            "pbrMetallicRoughness" : {
                "baseColorFactor" : [
                    0.800000011920929,
                    0.800000011920929,
                    0.800000011920929,
                    1
                ],
                "metallicFactor" : 0,
                "roughnessFactor" : 0.5
            }
        },
        {
            "doubleSided" : true,
            "emissiveFactor" : [
                0,
                0,
                0
            ],
            "name" : "Material.003",
            "pbrMetallicRoughness" : {
                "baseColorFactor" : [
                    0.800000011920929,
                    0.7249789834022522,
                    0.04177200049161911,
                    1
                ],
                "metallicFactor" : 0,
                "roughnessFactor" : 0.5
            }
        },
        {
            "doubleSided" : true,
            "emissiveFactor" : [
                0,
                0,
                0
            ],
            "name" : "Material.004",
            "pbrMetallicRoughness" : {
                "baseColorFactor" : [
                    0.4889810085296631,
                    1,
                    0.8873260021209717,
                    1
                ],
                "metallicFactor" : 0,
                "roughnessFactor" : 0.5
            }
        },
        {
            "doubleSided" : true,
            "emissiveFactor" : [
                0,
                0,
                0
            ],
            "name" : "Material.005",
            "pbrMetallicRoughness" : {
                "baseColorFactor" : [
                    0.018849000334739685,
                    0.018849000334739685,
                    0.018849000334739685,
                    1
                ],
                "metallicFactor" : 0,
                "roughnessFactor" : 0.5
            }
        }
    ],
    "meshes" : [
        {
            "name" : "Plane",
            "primitives" : [
                {
                    "attributes" : {
                        "POSITION" : 0,
                        "NORMAL" : 1,
                        "TEXCOORD_0" : 2
                    },
                    "indices" : 3,
                    "material" : 0
                },
                {
                    "attributes" : {
                        "POSITION" : 4,
                        "NORMAL" : 5,
                        "TEXCOORD_0" : 6
                    },
                    "indices" : 7,
                    "material" : 1
                },
                {
                    "attributes" : {
                        "POSITION" : 8,
                        "NORMAL" : 9,
                        "TEXCOORD_0" : 10
                    },
                    "indices" : 11,
                    "material" : 2
                },
                {
                    "attributes" : {
                        "POSITION" : 12,
                        "NORMAL" : 13,
                        "TEXCOORD_0" : 14
                    },
                    "indices" : 15,
                    "material" : 3
                },
                {
                    "attributes" : {
                        "POSITION" : 16,
                        "NORMAL" : 17,
                        "TEXCOORD_0" : 18
                    },
                    "indices" : 19,
                    "material" : 4
                }
            ]
        }
    ],
    "accessors" : [
        {
            "bufferView" : 0,
            "componentType" : 5126,
            "count" : 496,
            "max" : [
                9.533137321472168,
                14.602460861206055,
                0
            ],
            "min" : [
                -9.546664237976074,
                -9.823380470275879,
                -7.460453987121582
            ],
            "type" : "VEC3"
        },
        {
            "bufferView" : 1,
            "componentType" : 5126,
            "count" : 496,
            "type" : "VEC3"
        },
        {
            "bufferView" : 2,
            "componentType" : 5126,
            "count" : 496,
            "type" : "VEC2"
        },
        {
            "bufferView" : 3,
            "componentType" : 5123,
            "count" : 834,
            "type" : "SCALAR"
        },
        {
            "bufferView" : 4,
            "componentType" : 5126,
            "count" : 80,
            "max" : [
                7.535677909851074,
                -8.818005561828613,
                -0.029238000512123108
            ],
            "min" : [
                -7.552873134613037,
                -8.981560707092285,
                -2.029237985610962
            ],
            "type" : "VEC3"
        },
        {
            "bufferView" : 5,
            "componentType" : 5126,
            "count" : 80,
            "type" : "VEC3"
        },
        {
            "bufferView" : 6,
            "componentType" : 5126,
            "count" : 80,
            "type" : "VEC2"
        },
        {
            "bufferView" : 7,
            "componentType" : 5123,
            "count" : 150,
            "type" : "SCALAR"
        },
        {
            "bufferView" : 8,
            "componentType" : 5126,
            "count" : 200,
            "max" : [
                7.531489849090576,
                9,
                0
            ],
            "min" : [
                -7.548685073852539,
                -9,
                -0.2012680023908615
            ],
            "type" : "VEC3"
        },
        {
            "bufferView" : 9,
            "componentType" : 5126,
            "count" : 200,
            "type" : "VEC3"
        },
        {
            "bufferView" : 10,
            "componentType" : 5126,
            "count" : 200,
            "type" : "VEC2"
        },
        {
            "bufferView" : 11,
            "componentType" : 5123,
            "count" : 300,
            "type" : "SCALAR"
        },
        {
            "bufferView" : 12,
            "componentType" : 5126,
            "count" : 16,
            "max" : [
                9.533137321472168,
                14.602460861206055,
                0.09964299947023392
            ],
            "min" : [
                -9.546664237976074,
                -9.823380470275879,
                -7.460453987121582
            ],
            "type" : "VEC3"
        },
        {
            "bufferView" : 13,
            "componentType" : 5126,
            "count" : 16,
            "type" : "VEC3"
        },
        {
            "bufferView" : 14,
            "componentType" : 5126,
            "count" : 16,
            "type" : "VEC2"
        },
        {
            "bufferView" : 15,
            "componentType" : 5123,
            "count" : 24,
            "type" : "SCALAR"
        },
        {
            "bufferView" : 16,
            "componentType" : 5126,
            "count" : 20,
            "max" : [
                7.238717079162598,
                -9.803231239318848,
                -0.029238000512123108
            ],
            "min" : [
                -7.306153774261475,
                -9.803231239318848,
                -1.029237985610962
            ],
            "type" : "VEC3"
        },
        {
            "bufferView" : 17,
            "componentType" : 5126,
            "count" : 20,
            "type" : "VEC3"
        },
        {
            "bufferView" : 18,
            "componentType" : 5126,
            "count" : 20,
            "type" : "VEC2"
        },
        {
            "bufferView" : 19,
            "componentType" : 5123,
            "count" : 30,
            "type" : "SCALAR"
        }
    ],
    "bufferViews" : [
        {
            "buffer" : 0,
            "byteLength" : 5952,
            "byteOffset" : 0
        },
        {
            "buffer" : 0,
            "byteLength" : 5952,
            "byteOffset" : 5952
        },
        {
            "buffer" : 0,
            "byteLength" : 3968,
            "byteOffset" : 11904
        },
        {
            "buffer" : 0,
            "byteLength" : 1668,
            "byteOffset" : 15872
        },
        {
            "buffer" : 0,
            "byteLength" : 960,
            "byteOffset" : 17540
        },
        {
            "buffer" : 0,
            "byteLength" : 960,
            "byteOffset" : 18500
        },
        {
            "buffer" : 0,
            "byteLength" : 640,
            "byteOffset" : 19460
        },
        {
            "buffer" : 0,
            "byteLength" : 300,
            "byteOffset" : 20100
        },
        {
            "buffer" : 0,
            "byteLength" : 2400,
            "byteOffset" : 20400
        },
        {
            "buffer" : 0,
            "byteLength" : 2400,
            "byteOffset" : 22800
        },
        {
            "buffer" : 0,
            "byteLength" : 1600,
            "byteOffset" : 25200
        },
        {
            "buffer" : 0,
            "byteLength" : 600,
            "byteOffset" : 26800
        },
        {
            "buffer" : 0,
            "byteLength" : 192,
            "byteOffset" : 27400
        },
        {
            "buffer" : 0,
            "byteLength" : 192,
            "byteOffset" : 27592
        },
        {
            "buffer" : 0,
            "byteLength" : 128,
            "byteOffset" : 27784
        },
        {
            "buffer" : 0,
            "byteLength" : 48,
            "byteOffset" : 27912
        },
        {
            "buffer" : 0,
            "byteLength" : 240,
            "byteOffset" : 27960
        },
        {
            "buffer" : 0,
            "byteLength" : 240,
            "byteOffset" : 28200
        },
        {
            "buffer" : 0,
            "byteLength" : 160,
            "byteOffset" : 28440
        },
        {
            "buffer" : 0,
            "byteLength" : 60,
            "byteOffset" : 28600
        }
    ],
    "buffers" : [
        {
            "byteLength" : 28660,
            "uri" : "data:application/octet-stream;base64,"
        }
    ]
}
