{
    "asset" : {
        "generator" : "Khronos glTF Blender I/O v1.3.48",
        "version" : "2.0"
    },
    "scene" : 0,
    "scenes" : [
        {
            "name" : "Scene",
            "nodes" : [
                0
            ]
        }
    ],
    "nodes" : [
        {
            "mesh" : 0,
            "name" : "node_id30",
            "rotation" : [
                0.7071068286895752,
                0,
                0,
                0.7071068286895752
            ],
            "scale" : [
                0.30579662322998047,
                0.30579662322998047,
                0.30579662322998047
            ],
            "translation" : [
                0.001224088715389371,
                -2.615511894226074,
                0.2560000419616699
            ]
        }
    ],
    "materials" : [
        {
            "doubleSided" : true,
            "emissiveFactor" : [
                0,
                0,
                0
            ],
            "name" : "Material_49",
            "pbrMetallicRoughness" : {
                "baseColorTexture" : {
                    "index" : 0,
                    "texCoord" : 0
                },
                "metallicFactor" : 0,
                "roughnessFactor" : 0
            }
        }
    ],
    "meshes" : [
        {
            "name" : "mesh_id31",
            "primitives" : [
                {
                    "attributes" : {
                        "POSITION" : 0,
                        "NORMAL" : 1,
                        "TEXCOORD_0" : 2
                    },
                    "indices" : 3,
                    "material" : 0
                }
            ]
        }
    ],
    "textures" : [
        {
            "source" : 0
        }
    ],
    "images" : [
        {
            "bufferView" : 4,
            "mimeType" : "image/png",
            "name" : "5"
        }
    ],
    "accessors" : [
        {
            "bufferView" : 0,
            "componentType" : 5126,
            "count" : 8242,
            "max" : [
                7.31804084777832,
                5.983739376068115,
                0
            ],
            "min" : [
                -7.436141014099121,
                -8.342395782470703,
                -24.69900131225586
            ],
            "type" : "VEC3"
        },
        {
            "bufferView" : 1,
            "componentType" : 5126,
            "count" : 8242,
            "type" : "VEC3"
        },
        {
            "bufferView" : 2,
            "componentType" : 5126,
            "count" : 8242,
            "type" : "VEC2"
        },
        {
            "bufferView" : 3,
            "componentType" : 5123,
            "count" : 44937,
            "type" : "SCALAR"
        }
    ],
    "bufferViews" : [
        {
            "buffer" : 0,
            "byteLength" : 98904,
            "byteOffset" : 0
        },
        {
            "buffer" : 0,
            "byteLength" : 98904,
            "byteOffset" : 98904
        },
        {
            "buffer" : 0,
            "byteLength" : 65936,
            "byteOffset" : 197808
        },
        {
            "buffer" : 0,
            "byteLength" : 89874,
            "byteOffset" : 263744
        },
        {
            "buffer" : 0,
            "byteLength" : 1431594,
            "byteOffset" : 353620
        }
    ],
    "buffers" : [
        {
            "byteLength" : 1785216,
            "uri" : "data:application/octet-stream;base64,"
        }
    ]
}
