{
    "asset" : {
        "generator" : "Khronos glTF Blender I/O v1.3.48",
        "version" : "2.0"
    },
    "scene" : 0,
    "scenes" : [
        {
            "name" : "Scene",
            "nodes" : [
                0
            ]
        }
    ],
    "nodes" : [
        {
            "mesh" : 0,
            "name" : "node_id38",
            "rotation" : [
                0.7071068286895752,
                0,
                0,
                0.7071068286895752
            ],
            "scale" : [
                0.06215282157063484,
                0.06215282157063484,
                0.06215282157063484
            ],
            "translation" : [
                0,
                0.24857743084430695,
                0.25599995255470276
            ]
        }
    ],
    "materials" : [
        {
            "doubleSided" : true,
            "emissiveFactor" : [
                0,
                0,
                0
            ],
            "name" : "Material_61",
            "pbrMetallicRoughness" : {
                "baseColorTexture" : {
                    "index" : 0,
                    "texCoord" : 0
                },
                "metallicFactor" : 0,
                "roughnessFactor" : 0
            }
        }
    ],
    "meshes" : [
        {
            "name" : "mesh_id39",
            "primitives" : [
                {
                    "attributes" : {
                        "POSITION" : 0,
                        "NORMAL" : 1,
                        "TEXCOORD_0" : 2
                    },
                    "indices" : 3,
                    "material" : 0
                }
            ]
        }
    ],
    "textures" : [
        {
            "source" : 0
        }
    ],
    "images" : [
        {
            "bufferView" : 4,
            "mimeType" : "image/png",
            "name" : "8"
        }
    ],
    "accessors" : [
        {
            "bufferView" : 0,
            "componentType" : 5126,
            "count" : 51392,
            "max" : [
                30.229732513427734,
                52.11619567871094,
                7.62939453125e-06
            ],
            "min" : [
                -30.229732513427734,
                -29.445634841918945,
                -60.64976119995117
            ],
            "type" : "VEC3"
        },
        {
            "bufferView" : 1,
            "componentType" : 5126,
            "count" : 51392,
            "type" : "VEC3"
        },
        {
            "bufferView" : 2,
            "componentType" : 5126,
            "count" : 51392,
            "type" : "VEC2"
        },
        {
            "bufferView" : 3,
            "componentType" : 5123,
            "count" : 80625,
            "type" : "SCALAR"
        }
    ],
    "bufferViews" : [
        {
            "buffer" : 0,
            "byteLength" : 616704,
            "byteOffset" : 0
        },
        {
            "buffer" : 0,
            "byteLength" : 616704,
            "byteOffset" : 616704
        },
        {
            "buffer" : 0,
            "byteLength" : 411136,
            "byteOffset" : 1233408
        },
        {
            "buffer" : 0,
            "byteLength" : 161250,
            "byteOffset" : 1644544
        },
        {
            "buffer" : 0,
            "byteLength" : 1280009,
            "byteOffset" : 1805796
        }
    ],
    "buffers" : [
        {
            "byteLength" : 3085808,
            "uri" : "data:application/octet-stream;base64,"
        }
    ]
}
