{
    "asset" : {
        "generator" : "Khronos glTF Blender I/O v1.0.5",
        "version" : "2.0"
    },
    "scene" : 0,
    "scenes" : [
        {
            "name" : "Scene",
            "nodes" : [
                0,
                1
            ]
        }
    ],
    "nodes" : [
        {
            "mesh" : 0,
            "name" : "Cube.009_Cube.002",
            "rotation" : [
                0.7071068286895752,
                0,
                0,
                0.7071067094802856
            ],
            "scale" : [
                0.14461350440979004,
                0.14461350440979004,
                0.14461350440979004
            ]
        },
        {
            "mesh" : 1,
            "name" : "Cube.003",
            "rotation" : [
                0.7071068286895752,
                0,
                0,
                0.7071067094802856
            ],
            "scale" : [
                0.14461350440979004,
                0.14461350440979004,
                0.14461350440979004
            ]
        }
    ],
    "materials" : [
        {
            "doubleSided" : true,
            "name" : "mario1.003",
            "pbrMetallicRoughness" : {
                "baseColorTexture" : {
                    "index" : 0,
                    "texCoord" : 0
                },
                "metallicFactor" : 0,
                "roughnessFactor" : 0.6732679605484009
            }
        },
        {
            "doubleSided" : true,
            "name" : "mario1_NONE.003",
            "pbrMetallicRoughness" : {
                "baseColorTexture" : {
                    "index" : 1,
                    "texCoord" : 0
                },
                "metallicFactor" : 0,
                "roughnessFactor" : 0.6732679605484009
            }
        },
        {
            "doubleSided" : true,
            "name" : "Mario2.003",
            "pbrMetallicRoughness" : {
                "baseColorTexture" : {
                    "index" : 2,
                    "texCoord" : 0
                },
                "metallicFactor" : 0,
                "roughnessFactor" : 0.6732679605484009
            }
        }
    ],
    "meshes" : [
        {
            "name" : "Cube.009_Cube.002",
            "primitives" : [
                {
                    "attributes" : {
                        "POSITION" : 0,
                        "NORMAL" : 1,
                        "TEXCOORD_0" : 2
                    },
                    "indices" : 3,
                    "material" : 0
                },
                {
                    "attributes" : {
                        "POSITION" : 4,
                        "NORMAL" : 5,
                        "TEXCOORD_0" : 6
                    },
                    "indices" : 7,
                    "material" : 1
                }
            ]
        },
        {
            "name" : "Cube.003",
            "primitives" : [
                {
                    "attributes" : {
                        "POSITION" : 8,
                        "NORMAL" : 9,
                        "TEXCOORD_0" : 10
                    },
                    "indices" : 11,
                    "material" : 2
                }
            ]
        }
    ],
    "textures" : [
        {
            "source" : 0
        },
        {
            "source" : 0
        },
        {
            "source" : 0
        }
    ],
    "images" : [
        {
            "bufferView" : 4,
            "mimeType" : "image/png",
            "name" : "mario"
        }
    ],
    "accessors" : [
        {
            "bufferView" : 0,
            "componentType" : 5126,
            "count" : 12808,
            "max" : [
                22.990127563476562,
                7.272944927215576,
                0.47958898544311523
            ],
            "min" : [
                -13.065041542053223,
                -14.053314208984375,
                -50.45252990722656
            ],
            "type" : "VEC3"
        },
        {
            "bufferView" : 1,
            "componentType" : 5126,
            "count" : 12808,
            "type" : "VEC3"
        },
        {
            "bufferView" : 2,
            "componentType" : 5126,
            "count" : 12808,
            "type" : "VEC2"
        },
        {
            "bufferView" : 3,
            "componentType" : 5123,
            "count" : 71028,
            "type" : "SCALAR"
        },
        {
            "bufferView" : 5,
            "componentType" : 5126,
            "count" : 641,
            "max" : [
                5.976661205291748,
                -12.944952011108398,
                -14.506601333618164
            ],
            "min" : [
                3.976660966873169,
                -13.406098365783691,
                -20.946975708007812
            ],
            "type" : "VEC3"
        },
        {
            "bufferView" : 6,
            "componentType" : 5126,
            "count" : 641,
            "type" : "VEC3"
        },
        {
            "bufferView" : 7,
            "componentType" : 5126,
            "count" : 641,
            "type" : "VEC2"
        },
        {
            "bufferView" : 8,
            "componentType" : 5123,
            "count" : 996,
            "type" : "SCALAR"
        },
        {
            "bufferView" : 9,
            "componentType" : 5126,
            "count" : 65,
            "max" : [
                11.303606033325195,
                1.8947360515594482,
                -15.350720405578613
            ],
            "min" : [
                -1.3721940517425537,
                1.030102014541626,
                -35.686031341552734
            ],
            "type" : "VEC3"
        },
        {
            "bufferView" : 10,
            "componentType" : 5126,
            "count" : 65,
            "type" : "VEC3"
        },
        {
            "bufferView" : 11,
            "componentType" : 5126,
            "count" : 65,
            "type" : "VEC2"
        },
        {
            "bufferView" : 12,
            "componentType" : 5123,
            "count" : 204,
            "type" : "SCALAR"
        }
    ],
    "bufferViews" : [
        {
            "buffer" : 0,
            "byteLength" : 153696,
            "byteOffset" : 0
        },
        {
            "buffer" : 0,
            "byteLength" : 153696,
            "byteOffset" : 153696
        },
        {
            "buffer" : 0,
            "byteLength" : 102464,
            "byteOffset" : 307392
        },
        {
            "buffer" : 0,
            "byteLength" : 142056,
            "byteOffset" : 409856
        },
        {
            "buffer" : 0,
            "byteLength" : 260154,
            "byteOffset" : 551912
        },
        {
            "buffer" : 0,
            "byteLength" : 7692,
            "byteOffset" : 812068
        },
        {
            "buffer" : 0,
            "byteLength" : 7692,
            "byteOffset" : 819760
        },
        {
            "buffer" : 0,
            "byteLength" : 5128,
            "byteOffset" : 827452
        },
        {
            "buffer" : 0,
            "byteLength" : 1992,
            "byteOffset" : 832580
        },
        {
            "buffer" : 0,
            "byteLength" : 780,
            "byteOffset" : 834572
        },
        {
            "buffer" : 0,
            "byteLength" : 780,
            "byteOffset" : 835352
        },
        {
            "buffer" : 0,
            "byteLength" : 520,
            "byteOffset" : 836132
        },
        {
            "buffer" : 0,
            "byteLength" : 408,
            "byteOffset" : 836652
        }
    ],
    "buffers" : [
        {
            "byteLength" : 837060,
            "uri" : "data:application/octet-stream;base64,"
        }
    ]
}
