{
    "asset" : {
        "generator" : "Khronos glTF Blender I/O v1.2.75",
        "version" : "2.0"
    },
    "scene" : 0,
    "scenes" : [
        {
            "name" : "Scene",
            "nodes" : [
                0,
                1,
                2
            ]
        }
    ],
    "nodes" : [
        {
            "name" : "Sun"
        },
        {
            "mesh" : 0,
            "name" : "Cube"
        },
        {
            "name" : "Camera",
            "rotation" : [
                0.6356097459793091,
                0.32317906618118286,
                -0.334949254989624,
                0.6159257888793945
            ],
            "translation" : [
                5.45200777053833,
                0.45240193605422974,
                3.709218740463257
            ]
        }
    ],
    "materials" : [
        {
            "doubleSided" : true,
            "emissiveFactor" : [
                0,
                0,
                0
            ],
            "name" : "Material.016",
            "pbrMetallicRoughness" : {
                "baseColorFactor" : [
                    0.8000000715255737,
                    0.548602283000946,
                    0.1939936727285385,
                    1
                ],
                "metallicFactor" : 0,
                "roughnessFactor" : 0.7450979948043823
            }
        }
    ],
    "meshes" : [
        {
            "name" : "Cube.001",
            "primitives" : [
                {
                    "attributes" : {
                        "POSITION" : 0,
                        "NORMAL" : 1
                    },
                    "indices" : 2,
                    "material" : 0
                }
            ]
        }
    ],
    "accessors" : [
        {
            "bufferView" : 0,
            "componentType" : 5126,
            "count" : 30082,
            "max" : [
                1,
                1.5452425479888916,
                1
            ],
            "min" : [
                -1,
                0,
                -1
            ],
            "type" : "VEC3"
        },
        {
            "bufferView" : 1,
            "componentType" : 5126,
            "count" : 30082,
            "type" : "VEC3"
        },
        {
            "bufferView" : 2,
            "componentType" : 5123,
            "count" : 30576,
            "type" : "SCALAR"
        }
    ],
    "bufferViews" : [
        {
            "buffer" : 0,
            "byteLength" : 360984,
            "byteOffset" : 0
        },
        {
            "buffer" : 0,
            "byteLength" : 360984,
            "byteOffset" : 360984
        },
        {
            "buffer" : 0,
            "byteLength" : 61152,
            "byteOffset" : 721968
        }
    ],
    "buffers" : [
        {
            "byteLength" : 783120,
            "uri" : "data:application/octet-stream;base64,"
        }
    ]
}
