{
    "asset" : {
        "generator" : "Khronos glTF Blender I/O v1.2.75",
        "version" : "2.0"
    },
    "scene" : 0,
    "scenes" : [
        {
            "name" : "Scene",
            "nodes" : [
                0,
                1,
                2,
                3,
                4,
                5,
                6
            ]
        }
    ],
    "nodes" : [
        {
            "mesh" : 0,
            "name" : "Plane",
            "rotation" : [
                0.7071068286895752,
                0,
                0,
                0.7071067094802856
            ]
        },
        {
            "name" : "NurbsPath_NurbsPath.001",
            "rotation" : [
                0.7071068286895752,
                0,
                0,
                0.7071067094802856
            ]
        },
        {
            "mesh" : 1,
            "name" : "Plane.001",
            "rotation" : [
                0.7071068286895752,
                0,
                0,
                0.7071067094802856
            ]
        },
        {
            "mesh" : 2,
            "name" : "Plane.002",
            "rotation" : [
                0.7071068286895752,
                0,
                0,
                0.7071067094802856
            ]
        },
        {
            "mesh" : 3,
            "name" : "Text_START",
            "rotation" : [
                0.7071068286895752,
                0,
                0,
                0.7071067094802856
            ]
        },
        {
            "mesh" : 4,
            "name" : "Cube_Cube.002",
            "rotation" : [
                0.7071068286895752,
                0,
                0,
                0.7071067094802856
            ]
        },
        {
            "mesh" : 5,
            "name" : "Cube.001_Cube.003",
            "rotation" : [
                0.7071068286895752,
                0,
                0,
                0.7071067094802856
            ]
        }
    ],
    "materials" : [
        {
            "doubleSided" : true,
            "emissiveFactor" : [
                0,
                0,
                0
            ],
            "name" : "Material.001",
            "pbrMetallicRoughness" : {
                "baseColorFactor" : [
                    0,
                    0,
                    0,
                    1
                ],
                "metallicFactor" : 0,
                "roughnessFactor" : 0.8495146036148071
            }
        },
        {
            "doubleSided" : true,
            "emissiveFactor" : [
                0,
                0,
                0
            ],
            "name" : "Material.002",
            "pbrMetallicRoughness" : {
                "baseColorFactor" : [
                    0.6975950002670288,
                    0.7105519771575928,
                    0.6448360085487366,
                    1
                ],
                "metallicFactor" : 0,
                "roughnessFactor" : 0.5
            }
        },
        {
            "doubleSided" : true,
            "emissiveFactor" : [
                0,
                0,
                0
            ],
            "name" : "Material.003",
            "pbrMetallicRoughness" : {
                "baseColorFactor" : [
                    0.800000011920929,
                    0.062490999698638916,
                    0.05740800127387047,
                    1
                ],
                "metallicFactor" : 0,
                "roughnessFactor" : 0.5
            }
        },
        {
            "doubleSided" : true,
            "emissiveFactor" : [
                0,
                0,
                0
            ],
            "name" : "Material.004",
            "pbrMetallicRoughness" : {
                "baseColorFactor" : [
                    0.010325999930500984,
                    0.31081199645996094,
                    0.002242000075057149,
                    1
                ],
                "metallicFactor" : 0,
                "roughnessFactor" : 0.5
            }
        },
        {
            "doubleSided" : true,
            "emissiveFactor" : [
                0,
                0,
                0
            ],
            "name" : "Material.005",
            "pbrMetallicRoughness" : {
                "baseColorFactor" : [
                    0.014569999650120735,
                    0.26676100492477417,
                    0.004869000054895878,
                    1
                ],
                "metallicFactor" : 0,
                "roughnessFactor" : 0.5
            }
        },
        {
            "doubleSided" : true,
            "emissiveFactor" : [
                0,
                0,
                0
            ],
            "name" : "Material.006",
            "pbrMetallicRoughness" : {
                "baseColorFactor" : [
                    0,
                    0,
                    0,
                    1
                ],
                "metallicFactor" : 0,
                "roughnessFactor" : 0.5
            }
        },
        {
            "doubleSided" : true,
            "emissiveFactor" : [
                0,
                0,
                0
            ],
            "name" : "Material.008",
            "pbrMetallicRoughness" : {
                "baseColorFactor" : [
                    0.800000011920929,
                    0.800000011920929,
                    0.800000011920929,
                    1
                ],
                "metallicFactor" : 0,
                "roughnessFactor" : 0.5
            }
        },
        {
            "doubleSided" : true,
            "emissiveFactor" : [
                0,
                0,
                0
            ],
            "name" : "Material.010",
            "pbrMetallicRoughness" : {
                "baseColorFactor" : [
                    0.02217400074005127,
                    0.02217400074005127,
                    0.02217400074005127,
                    1
                ],
                "metallicFactor" : 0,
                "roughnessFactor" : 0.5
            }
        },
        {
            "doubleSided" : true,
            "emissiveFactor" : [
                0,
                0,
                0
            ],
            "name" : "Material.009",
            "pbrMetallicRoughness" : {
                "baseColorFactor" : [
                    0.02217400074005127,
                    0.02217400074005127,
                    0.02217400074005127,
                    1
                ],
                "metallicFactor" : 0,
                "roughnessFactor" : 0.5
            }
        }
    ],
    "meshes" : [
        {
            "name" : "Plane",
            "primitives" : [
                {
                    "attributes" : {
                        "POSITION" : 0,
                        "NORMAL" : 1,
                        "TEXCOORD_0" : 2
                    },
                    "indices" : 3,
                    "material" : 0
                },
                {
                    "attributes" : {
                        "POSITION" : 4,
                        "NORMAL" : 5,
                        "TEXCOORD_0" : 6
                    },
                    "indices" : 7,
                    "material" : 1
                },
                {
                    "attributes" : {
                        "POSITION" : 8,
                        "NORMAL" : 9,
                        "TEXCOORD_0" : 10
                    },
                    "indices" : 11,
                    "material" : 2
                },
                {
                    "attributes" : {
                        "POSITION" : 12,
                        "NORMAL" : 13,
                        "TEXCOORD_0" : 14
                    },
                    "indices" : 15,
                    "material" : 3
                }
            ]
        },
        {
            "name" : "Plane.001",
            "primitives" : [
                {
                    "attributes" : {
                        "POSITION" : 16,
                        "NORMAL" : 17,
                        "TEXCOORD_0" : 18
                    },
                    "indices" : 19,
                    "material" : 4
                }
            ]
        },
        {
            "name" : "Plane.002",
            "primitives" : [
                {
                    "attributes" : {
                        "POSITION" : 20,
                        "NORMAL" : 21,
                        "TEXCOORD_0" : 22
                    },
                    "indices" : 23,
                    "material" : 5
                }
            ]
        },
        {
            "name" : "Text_START",
            "primitives" : [
                {
                    "attributes" : {
                        "POSITION" : 24,
                        "NORMAL" : 25,
                        "TEXCOORD_0" : 26
                    },
                    "indices" : 27,
                    "material" : 6
                }
            ]
        },
        {
            "name" : "Cube_Cube.002",
            "primitives" : [
                {
                    "attributes" : {
                        "POSITION" : 28,
                        "NORMAL" : 29,
                        "TEXCOORD_0" : 30
                    },
                    "indices" : 31,
                    "material" : 7
                }
            ]
        },
        {
            "name" : "Cube.001_Cube.003",
            "primitives" : [
                {
                    "attributes" : {
                        "POSITION" : 32,
                        "NORMAL" : 33,
                        "TEXCOORD_0" : 34
                    },
                    "indices" : 35,
                    "material" : 8
                }
            ]
        }
    ],
    "accessors" : [
        {
            "bufferView" : 0,
            "componentType" : 5126,
            "count" : 1116,
            "max" : [
                48.78788757324219,
                50.14335250854492,
                -0.2999989986419678
            ],
            "min" : [
                -65.0967788696289,
                -81.62384033203125,
                -0.30000200867652893
            ],
            "type" : "VEC3"
        },
        {
            "bufferView" : 1,
            "componentType" : 5126,
            "count" : 1116,
            "type" : "VEC3"
        },
        {
            "bufferView" : 2,
            "componentType" : 5126,
            "count" : 1116,
            "type" : "VEC2"
        },
        {
            "bufferView" : 3,
            "componentType" : 5123,
            "count" : 3720,
            "type" : "SCALAR"
        },
        {
            "bufferView" : 4,
            "componentType" : 5126,
            "count" : 1116,
            "max" : [
                49.66459655761719,
                51.019996643066406,
                -0.2999989986419678
            ],
            "min" : [
                -65.9734878540039,
                -82.50054931640625,
                -0.30000200867652893
            ],
            "type" : "VEC3"
        },
        {
            "bufferView" : 5,
            "componentType" : 5126,
            "count" : 1116,
            "type" : "VEC3"
        },
        {
            "bufferView" : 6,
            "componentType" : 5126,
            "count" : 1116,
            "type" : "VEC2"
        },
        {
            "bufferView" : 7,
            "componentType" : 5123,
            "count" : 1860,
            "type" : "SCALAR"
        },
        {
            "bufferView" : 8,
            "componentType" : 5126,
            "count" : 1118,
            "max" : [
                49.66459655761719,
                51.019996643066406,
                -0.2999989986419678
            ],
            "min" : [
                -65.9734878540039,
                -82.50054931640625,
                -0.30000200867652893
            ],
            "type" : "VEC3"
        },
        {
            "bufferView" : 9,
            "componentType" : 5126,
            "count" : 1118,
            "type" : "VEC3"
        },
        {
            "bufferView" : 10,
            "componentType" : 5126,
            "count" : 1118,
            "type" : "VEC2"
        },
        {
            "bufferView" : 11,
            "componentType" : 5123,
            "count" : 1860,
            "type" : "SCALAR"
        },
        {
            "bufferView" : 12,
            "componentType" : 5126,
            "count" : 1128,
            "max" : [
                51.09480285644531,
                52.45009994506836,
                -0.2999989986419678
            ],
            "min" : [
                -67.4036865234375,
                -83.93075561523438,
                -0.30000200867652893
            ],
            "type" : "VEC3"
        },
        {
            "bufferView" : 13,
            "componentType" : 5126,
            "count" : 1128,
            "type" : "VEC3"
        },
        {
            "bufferView" : 14,
            "componentType" : 5126,
            "count" : 1128,
            "type" : "VEC2"
        },
        {
            "bufferView" : 15,
            "componentType" : 5123,
            "count" : 2976,
            "type" : "SCALAR"
        },
        {
            "bufferView" : 16,
            "componentType" : 5126,
            "count" : 4,
            "max" : [
                57.50470733642578,
                65.40589141845703,
                0
            ],
            "min" : [
                -79.9940414428711,
                -92.14429473876953,
                0
            ],
            "type" : "VEC3"
        },
        {
            "bufferView" : 17,
            "componentType" : 5126,
            "count" : 4,
            "type" : "VEC3"
        },
        {
            "bufferView" : 18,
            "componentType" : 5126,
            "count" : 4,
            "type" : "VEC2"
        },
        {
            "bufferView" : 19,
            "componentType" : 5123,
            "count" : 6,
            "type" : "SCALAR"
        },
        {
            "bufferView" : 20,
            "componentType" : 5126,
            "count" : 4,
            "max" : [
                48.14540481567383,
                -10.013148307800293,
                -0.3247140049934387
            ],
            "min" : [
                35.07540512084961,
                -18.404869079589844,
                -0.3247140049934387
            ],
            "type" : "VEC3"
        },
        {
            "bufferView" : 21,
            "componentType" : 5126,
            "count" : 4,
            "type" : "VEC3"
        },
        {
            "bufferView" : 22,
            "componentType" : 5126,
            "count" : 4,
            "type" : "VEC2"
        },
        {
            "bufferView" : 23,
            "componentType" : 5123,
            "count" : 6,
            "type" : "SCALAR"
        },
        {
            "bufferView" : 24,
            "componentType" : 5126,
            "count" : 263,
            "max" : [
                44.20219039916992,
                -13.605631828308105,
                -0.5060039758682251
            ],
            "min" : [
                39.406436920166016,
                -14.973325729370117,
                -0.5060039758682251
            ],
            "type" : "VEC3"
        },
        {
            "bufferView" : 25,
            "componentType" : 5126,
            "count" : 263,
            "type" : "VEC3"
        },
        {
            "bufferView" : 26,
            "componentType" : 5126,
            "count" : 263,
            "type" : "VEC2"
        },
        {
            "bufferView" : 27,
            "componentType" : 5123,
            "count" : 711,
            "type" : "SCALAR"
        },
        {
            "bufferView" : 28,
            "componentType" : 5126,
            "count" : 6336,
            "max" : [
                51.24948501586914,
                52.60403060913086,
                -0.34831899404525757
            ],
            "min" : [
                -67.5589599609375,
                -84.08657836914062,
                -2.0604610443115234
            ],
            "type" : "VEC3"
        },
        {
            "bufferView" : 29,
            "componentType" : 5126,
            "count" : 6336,
            "type" : "VEC3"
        },
        {
            "bufferView" : 30,
            "componentType" : 5126,
            "count" : 6336,
            "type" : "VEC2"
        },
        {
            "bufferView" : 31,
            "componentType" : 5123,
            "count" : 9504,
            "type" : "SCALAR"
        },
        {
            "bufferView" : 32,
            "componentType" : 5126,
            "count" : 6336,
            "max" : [
                34.21953582763672,
                35.573787689208984,
                -0.4919230043888092
            ],
            "min" : [
                -50.52879333496094,
                -67.05477142333984,
                -1.9451090097427368
            ],
            "type" : "VEC3"
        },
        {
            "bufferView" : 33,
            "componentType" : 5126,
            "count" : 6336,
            "type" : "VEC3"
        },
        {
            "bufferView" : 34,
            "componentType" : 5126,
            "count" : 6336,
            "type" : "VEC2"
        },
        {
            "bufferView" : 35,
            "componentType" : 5123,
            "count" : 9504,
            "type" : "SCALAR"
        }
    ],
    "bufferViews" : [
        {
            "buffer" : 0,
            "byteLength" : 13392,
            "byteOffset" : 0
        },
        {
            "buffer" : 0,
            "byteLength" : 13392,
            "byteOffset" : 13392
        },
        {
            "buffer" : 0,
            "byteLength" : 8928,
            "byteOffset" : 26784
        },
        {
            "buffer" : 0,
            "byteLength" : 7440,
            "byteOffset" : 35712
        },
        {
            "buffer" : 0,
            "byteLength" : 13392,
            "byteOffset" : 43152
        },
        {
            "buffer" : 0,
            "byteLength" : 13392,
            "byteOffset" : 56544
        },
        {
            "buffer" : 0,
            "byteLength" : 8928,
            "byteOffset" : 69936
        },
        {
            "buffer" : 0,
            "byteLength" : 3720,
            "byteOffset" : 78864
        },
        {
            "buffer" : 0,
            "byteLength" : 13416,
            "byteOffset" : 82584
        },
        {
            "buffer" : 0,
            "byteLength" : 13416,
            "byteOffset" : 96000
        },
        {
            "buffer" : 0,
            "byteLength" : 8944,
            "byteOffset" : 109416
        },
        {
            "buffer" : 0,
            "byteLength" : 3720,
            "byteOffset" : 118360
        },
        {
            "buffer" : 0,
            "byteLength" : 13536,
            "byteOffset" : 122080
        },
        {
            "buffer" : 0,
            "byteLength" : 13536,
            "byteOffset" : 135616
        },
        {
            "buffer" : 0,
            "byteLength" : 9024,
            "byteOffset" : 149152
        },
        {
            "buffer" : 0,
            "byteLength" : 5952,
            "byteOffset" : 158176
        },
        {
            "buffer" : 0,
            "byteLength" : 48,
            "byteOffset" : 164128
        },
        {
            "buffer" : 0,
            "byteLength" : 48,
            "byteOffset" : 164176
        },
        {
            "buffer" : 0,
            "byteLength" : 32,
            "byteOffset" : 164224
        },
        {
            "buffer" : 0,
            "byteLength" : 12,
            "byteOffset" : 164256
        },
        {
            "buffer" : 0,
            "byteLength" : 48,
            "byteOffset" : 164268
        },
        {
            "buffer" : 0,
            "byteLength" : 48,
            "byteOffset" : 164316
        },
        {
            "buffer" : 0,
            "byteLength" : 32,
            "byteOffset" : 164364
        },
        {
            "buffer" : 0,
            "byteLength" : 12,
            "byteOffset" : 164396
        },
        {
            "buffer" : 0,
            "byteLength" : 3156,
            "byteOffset" : 164408
        },
        {
            "buffer" : 0,
            "byteLength" : 3156,
            "byteOffset" : 167564
        },
        {
            "buffer" : 0,
            "byteLength" : 2104,
            "byteOffset" : 170720
        },
        {
            "buffer" : 0,
            "byteLength" : 1422,
            "byteOffset" : 172824
        },
        {
            "buffer" : 0,
            "byteLength" : 76032,
            "byteOffset" : 174248
        },
        {
            "buffer" : 0,
            "byteLength" : 76032,
            "byteOffset" : 250280
        },
        {
            "buffer" : 0,
            "byteLength" : 50688,
            "byteOffset" : 326312
        },
        {
            "buffer" : 0,
            "byteLength" : 19008,
            "byteOffset" : 377000
        },
        {
            "buffer" : 0,
            "byteLength" : 76032,
            "byteOffset" : 396008
        },
        {
            "buffer" : 0,
            "byteLength" : 76032,
            "byteOffset" : 472040
        },
        {
            "buffer" : 0,
            "byteLength" : 50688,
            "byteOffset" : 548072
        },
        {
            "buffer" : 0,
            "byteLength" : 19008,
            "byteOffset" : 598760
        }
    ],
    "buffers" : [
        {
            "byteLength" : 617768,
            "uri" : "data:application/octet-stream;base64,"
        }
    ]
}
