{
    "asset" : {
        "generator" : "Khronos glTF Blender I/O v1.2.75",
        "version" : "2.0"
    },
    "scene" : 0,
    "scenes" : [
        {
            "name" : "Scene",
            "nodes" : [
                0,
                1,
                2
            ]
        }
    ],
    "nodes" : [
        {
            "name" : "Light",
            "rotation" : [
                0.16907575726509094,
                0.7558803558349609,
                -0.27217137813568115,
                0.570947527885437
            ],
            "translation" : [
                4.076245307922363,
                5.903861999511719,
                -1.0054539442062378
            ]
        },
        {
            "name" : "Camera",
            "rotation" : [
                0.483536034822464,
                0.33687159419059753,
                -0.20870360732078552,
                0.7804827094078064
            ],
            "translation" : [
                7.358891487121582,
                4.958309173583984,
                6.925790786743164
            ]
        },
        {
            "mesh" : 0,
            "name" : "Cube.056_Cube.057",
            "rotation" : [
                0.7071068286895752,
                0,
                0,
                0.7071067094802856
            ]
        }
    ],
    "materials" : [
        {
            "doubleSided" : true,
            "emissiveFactor" : [
                0,
                0,
                0
            ],
            "name" : "Material.002",
            "pbrMetallicRoughness" : {
                "baseColorFactor" : [
                    0.800000011920929,
                    0.027536999434232712,
                    0.030876999720931053,
                    1
                ],
                "metallicFactor" : 0,
                "roughnessFactor" : 0.5
            }
        },
        {
            "doubleSided" : true,
            "emissiveFactor" : [
                0,
                0,
                0
            ],
            "name" : "Material.003",
            "pbrMetallicRoughness" : {
                "baseColorFactor" : [
                    0.800000011920929,
                    0.48420101404190063,
                    0.25663599371910095,
                    1
                ],
                "metallicFactor" : 0,
                "roughnessFactor" : 0.5
            }
        },
        {
            "doubleSided" : true,
            "emissiveFactor" : [
                0,
                0,
                0
            ],
            "name" : "Material.004",
            "pbrMetallicRoughness" : {
                "baseColorFactor" : [
                    0.32150501012802124,
                    0.38453999161720276,
                    0.42002299427986145,
                    1
                ],
                "metallicFactor" : 0,
                "roughnessFactor" : 0.5
            }
        }
    ],
    "meshes" : [
        {
            "name" : "Cube.056_Cube.057",
            "primitives" : [
                {
                    "attributes" : {
                        "POSITION" : 0,
                        "NORMAL" : 1,
                        "TEXCOORD_0" : 2
                    },
                    "indices" : 3,
                    "material" : 0
                },
                {
                    "attributes" : {
                        "POSITION" : 4,
                        "NORMAL" : 5,
                        "TEXCOORD_0" : 6
                    },
                    "indices" : 7,
                    "material" : 1
                },
                {
                    "attributes" : {
                        "POSITION" : 8,
                        "NORMAL" : 9,
                        "TEXCOORD_0" : 10
                    },
                    "indices" : 11,
                    "material" : 2
                }
            ]
        }
    ],
    "accessors" : [
        {
            "bufferView" : 0,
            "componentType" : 5126,
            "count" : 951,
            "max" : [
                1.783287525177002,
                1.5707805156707764,
                0.009831385686993599
            ],
            "min" : [
                -1.8027148246765137,
                -2.186925172805786,
                -4.693655490875244
            ],
            "type" : "VEC3"
        },
        {
            "bufferView" : 1,
            "componentType" : 5126,
            "count" : 951,
            "type" : "VEC3"
        },
        {
            "bufferView" : 2,
            "componentType" : 5126,
            "count" : 951,
            "type" : "VEC2"
        },
        {
            "bufferView" : 3,
            "componentType" : 5123,
            "count" : 1092,
            "type" : "SCALAR"
        },
        {
            "bufferView" : 4,
            "componentType" : 5126,
            "count" : 798,
            "max" : [
                1.783287525177002,
                1.4816882610321045,
                0.009831385686993599
            ],
            "min" : [
                -1.853034496307373,
                -2.1773502826690674,
                -4.335226535797119
            ],
            "type" : "VEC3"
        },
        {
            "bufferView" : 5,
            "componentType" : 5126,
            "count" : 798,
            "type" : "VEC3"
        },
        {
            "bufferView" : 6,
            "componentType" : 5126,
            "count" : 798,
            "type" : "VEC2"
        },
        {
            "bufferView" : 7,
            "componentType" : 5123,
            "count" : 864,
            "type" : "SCALAR"
        },
        {
            "bufferView" : 8,
            "componentType" : 5126,
            "count" : 48,
            "max" : [
                1.5286259651184082,
                1.2533633708953857,
                0.009831385686993599
            ],
            "min" : [
                -1.5469355583190918,
                -1.4887096881866455,
                -4.648609161376953
            ],
            "type" : "VEC3"
        },
        {
            "bufferView" : 9,
            "componentType" : 5126,
            "count" : 48,
            "type" : "VEC3"
        },
        {
            "bufferView" : 10,
            "componentType" : 5126,
            "count" : 48,
            "type" : "VEC2"
        },
        {
            "bufferView" : 11,
            "componentType" : 5123,
            "count" : 54,
            "type" : "SCALAR"
        }
    ],
    "bufferViews" : [
        {
            "buffer" : 0,
            "byteLength" : 11412,
            "byteOffset" : 0
        },
        {
            "buffer" : 0,
            "byteLength" : 11412,
            "byteOffset" : 11412
        },
        {
            "buffer" : 0,
            "byteLength" : 7608,
            "byteOffset" : 22824
        },
        {
            "buffer" : 0,
            "byteLength" : 2184,
            "byteOffset" : 30432
        },
        {
            "buffer" : 0,
            "byteLength" : 9576,
            "byteOffset" : 32616
        },
        {
            "buffer" : 0,
            "byteLength" : 9576,
            "byteOffset" : 42192
        },
        {
            "buffer" : 0,
            "byteLength" : 6384,
            "byteOffset" : 51768
        },
        {
            "buffer" : 0,
            "byteLength" : 1728,
            "byteOffset" : 58152
        },
        {
            "buffer" : 0,
            "byteLength" : 576,
            "byteOffset" : 59880
        },
        {
            "buffer" : 0,
            "byteLength" : 576,
            "byteOffset" : 60456
        },
        {
            "buffer" : 0,
            "byteLength" : 384,
            "byteOffset" : 61032
        },
        {
            "buffer" : 0,
            "byteLength" : 108,
            "byteOffset" : 61416
        }
    ],
    "buffers" : [
        {
            "byteLength" : 61524,
            "uri" : "data:application/octet-stream;base64,"
        }
    ]
}
