{
    "asset" : {
        "generator" : "Khronos glTF Blender I/O v1.2.75",
        "version" : "2.0"
    },
    "scene" : 0,
    "scenes" : [
        {
            "name" : "Scene",
            "nodes" : [
                0,
                1,
                2,
                3,
                4,
                5
            ]
        }
    ],
    "nodes" : [
        {
            "mesh" : 0,
            "name" : "Body",
            "rotation" : [
                -0.7071068286895752,
                0,
                0,
                0.7071067094802856
            ],
            "scale" : [
                0.888340175151825,
                1.145850419998169,
                1.0184426307678223
            ],
            "translation" : [
                0,
                -0.16927514970302582,
                0
            ]
        },
        {
            "mesh" : 1,
            "name" : "Glass",
            "rotation" : [
                -0.7071068286895752,
                0,
                0,
                0.7071067094802856
            ],
            "scale" : [
                0.888340175151825,
                1.145850419998169,
                1.0184426307678223
            ],
            "translation" : [
                0,
                -0.16927514970302582,
                0
            ]
        },
        {
            "name" : "Light.001",
            "rotation" : [
                0.16907575726509094,
                0.7558803558349609,
                -0.27217137813568115,
                0.570947527885437
            ],
            "scale" : [
                1.1245750188827515,
                0.9865607023239136,
                0.9493234753608704
            ],
            "translation" : [
                0,
                -0.16927514970302582,
                0
            ]
        },
        {
            "name" : "Camera.001",
            "rotation" : [
                0.483536034822464,
                0.33687159419059753,
                -0.20870360732078552,
                0.7804827094078064
            ],
            "scale" : [
                1.027277946472168,
                1.0183312892913818,
                1.0219829082489014
            ],
            "translation" : [
                0,
                -0.16927514970302582,
                0
            ]
        },
        {
            "name" : "Light",
            "rotation" : [
                0.16907575726509094,
                0.7558803558349609,
                -0.27217137813568115,
                0.570947527885437
            ],
            "translation" : [
                4.076245307922363,
                5.903861999511719,
                -1.0054539442062378
            ]
        },
        {
            "name" : "Camera",
            "rotation" : [
                0.483536034822464,
                0.33687159419059753,
                -0.20870360732078552,
                0.7804827094078064
            ],
            "translation" : [
                7.358891487121582,
                4.958309173583984,
                6.925790786743164
            ]
        }
    ],
    "materials" : [
        {
            "emissiveFactor" : [
                0,
                0,
                0
            ],
            "name" : "Interior",
            "pbrMetallicRoughness" : {
                "baseColorFactor" : [
                    0.800000011920929,
                    0.800000011920929,
                    0.800000011920929,
                    1
                ],
                "baseColorTexture" : {
                    "index" : 0,
                    "texCoord" : 0
                },
                "metallicRoughnessTexture" : {
                    "index" : 1,
                    "texCoord" : 0
                }
            }
        },
        {
            "emissiveFactor" : [
                0,
                0,
                0
            ],
            "name" : "Body",
            "pbrMetallicRoughness" : {
                "baseColorFactor" : [
                    0.8000000715255737,
                    0,
                    0.003446251852437854,
                    1
                ],
                "metallicFactor" : 0,
                "roughnessFactor" : 0.4000000059604645
            }
        },
        {
            "emissiveFactor" : [
                0,
                0,
                0
            ],
            "name" : "Glass",
            "pbrMetallicRoughness" : {
                "baseColorFactor" : [
                    0.800000011920929,
                    0.800000011920929,
                    0.800000011920929,
                    1
                ],
                "baseColorTexture" : {
                    "index" : 2,
                    "texCoord" : 0
                },
                "metallicRoughnessTexture" : {
                    "index" : 3,
                    "texCoord" : 0
                }
            }
        }
    ],
    "meshes" : [
        {
            "name" : "Body",
            "primitives" : [
                {
                    "attributes" : {
                        "POSITION" : 0,
                        "NORMAL" : 1,
                        "TEXCOORD_0" : 2
                    },
                    "indices" : 3,
                    "material" : 0
                },
                {
                    "attributes" : {
                        "POSITION" : 4,
                        "NORMAL" : 5,
                        "TEXCOORD_0" : 6
                    },
                    "indices" : 7,
                    "material" : 1
                }
            ]
        },
        {
            "name" : "Glass",
            "primitives" : [
                {
                    "attributes" : {
                        "POSITION" : 8,
                        "NORMAL" : 9,
                        "TEXCOORD_0" : 10
                    },
                    "indices" : 11,
                    "material" : 2
                }
            ]
        }
    ],
    "textures" : [
        {
            "source" : 0
        },
        {
            "source" : 1
        },
        {
            "source" : 2
        },
        {
            "source" : 3
        }
    ],
    "images" : [
        {
            "bufferView" : 4,
            "mimeType" : "image/jpeg",
            "name" : "Image_1"
        },
        {
            "bufferView" : 5,
            "mimeType" : "image/jpeg",
            "name" : "Image_0"
        },
        {
            "bufferView" : 14,
            "mimeType" : "image/jpeg",
            "name" : "Image_9"
        },
        {
            "bufferView" : 15,
            "mimeType" : "image/jpeg",
            "name" : "Image_8"
        }
    ],
    "accessors" : [
        {
            "bufferView" : 0,
            "componentType" : 5126,
            "count" : 1400,
            "max" : [
                1.2562793493270874,
                2.187239170074463,
                1.9105093479156494
            ],
            "min" : [
                -1.2580262422561646,
                -1.0618656873703003,
                0.26865845918655396
            ],
            "type" : "VEC3"
        },
        {
            "bufferView" : 1,
            "componentType" : 5126,
            "count" : 1400,
            "type" : "VEC3"
        },
        {
            "bufferView" : 2,
            "componentType" : 5126,
            "count" : 1400,
            "type" : "VEC2"
        },
        {
            "bufferView" : 3,
            "componentType" : 5123,
            "count" : 1890,
            "type" : "SCALAR"
        },
        {
            "bufferView" : 6,
            "componentType" : 5126,
            "count" : 5058,
            "max" : [
                1.5904759168624878,
                3.114488363265991,
                1.9793107509613037
            ],
            "min" : [
                -1.5922226905822754,
                -3.602168083190918,
                0.051672354340553284
            ],
            "type" : "VEC3"
        },
        {
            "bufferView" : 7,
            "componentType" : 5126,
            "count" : 5058,
            "type" : "VEC3"
        },
        {
            "bufferView" : 8,
            "componentType" : 5126,
            "count" : 5058,
            "type" : "VEC2"
        },
        {
            "bufferView" : 9,
            "componentType" : 5123,
            "count" : 7800,
            "type" : "SCALAR"
        },
        {
            "bufferView" : 10,
            "componentType" : 5126,
            "count" : 276,
            "max" : [
                1.4393887519836426,
                2.8366281986236572,
                1.9006731510162354
            ],
            "min" : [
                -1.4411356449127197,
                -3.259828567504883,
                0.8490725755691528
            ],
            "type" : "VEC3"
        },
        {
            "bufferView" : 11,
            "componentType" : 5126,
            "count" : 276,
            "type" : "VEC3"
        },
        {
            "bufferView" : 12,
            "componentType" : 5126,
            "count" : 276,
            "type" : "VEC2"
        },
        {
            "bufferView" : 13,
            "componentType" : 5123,
            "count" : 636,
            "type" : "SCALAR"
        }
    ],
    "bufferViews" : [
        {
            "buffer" : 0,
            "byteLength" : 16800,
            "byteOffset" : 0
        },
        {
            "buffer" : 0,
            "byteLength" : 16800,
            "byteOffset" : 16800
        },
        {
            "buffer" : 0,
            "byteLength" : 11200,
            "byteOffset" : 33600
        },
        {
            "buffer" : 0,
            "byteLength" : 3780,
            "byteOffset" : 44800
        },
        {
            "buffer" : 0,
            "byteLength" : 2062,
            "byteOffset" : 48580
        },
        {
            "buffer" : 0,
            "byteLength" : 2065,
            "byteOffset" : 50644
        },
        {
            "buffer" : 0,
            "byteLength" : 60696,
            "byteOffset" : 52712
        },
        {
            "buffer" : 0,
            "byteLength" : 60696,
            "byteOffset" : 113408
        },
        {
            "buffer" : 0,
            "byteLength" : 40464,
            "byteOffset" : 174104
        },
        {
            "buffer" : 0,
            "byteLength" : 15600,
            "byteOffset" : 214568
        },
        {
            "buffer" : 0,
            "byteLength" : 3312,
            "byteOffset" : 230168
        },
        {
            "buffer" : 0,
            "byteLength" : 3312,
            "byteOffset" : 233480
        },
        {
            "buffer" : 0,
            "byteLength" : 2208,
            "byteOffset" : 236792
        },
        {
            "buffer" : 0,
            "byteLength" : 1272,
            "byteOffset" : 239000
        },
        {
            "buffer" : 0,
            "byteLength" : 19124,
            "byteOffset" : 240272
        },
        {
            "buffer" : 0,
            "byteLength" : 161817,
            "byteOffset" : 259396
        }
    ],
    "buffers" : [
        {
            "byteLength" : 421216,
            "uri" : "data:application/octet-stream;base64,"
        }
    ]
}
