{
    "asset" : {
        "generator" : "Khronos glTF Blender I/O v1.4.40",
        "version" : "2.0"
    },
    "scene" : 0,
    "scenes" : [
        {
            "name" : "Scene",
            "nodes" : [
                0,
                1,
                2,
                3,
                4,
                5,
                6,
                7,
                8,
                9,
                10,
                11
            ]
        }
    ],
    "nodes" : [
        {
            "mesh" : 0,
            "name" : "Cube",
            "rotation" : [
                0,
                -0.7071068286895752,
                0,
                0.7071067690849304
            ],
            "scale" : [
                0.14999999105930328,
                0.04999999701976776,
                0.21249999105930328
            ],
            "translation" : [
                0.0010648611932992935,
                0.05077536404132843,
                5.995854735374451e-05
            ]
        },
        {
            "name" : "Light.001",
            "rotation" : [
                0.3120088577270508,
                0.13076725602149963,
                -0.07289959490299225,
                0.9382089972496033
            ],
            "scale" : [
                0.04999999701976776,
                0.04999999701976776,
                0.04999999701976776
            ],
            "translation" : [
                0.05133754387497902,
                0.34596848487854004,
                0.4240557551383972
            ]
        },
        {
            "name" : "Camera.001",
            "rotation" : [
                0.48948734998703003,
                -0.3136804699897766,
                0.1943359076976776,
                0.7900887727737427
            ],
            "scale" : [
                0.04999999701976776,
                0.04999999701976776,
                0.04999999701976776
            ],
            "translation" : [
                -0.34522467851638794,
                0.2986908555030823,
                0.36800462007522583
            ]
        },
        {
            "name" : "Light.002",
            "rotation" : [
                0.3120088577270508,
                0.13076725602149963,
                -0.07289959490299225,
                0.9382089972496033
            ],
            "scale" : [
                0.04999999701976776,
                0.04999999701976776,
                0.04999999701976776
            ],
            "translation" : [
                0.05133757367730141,
                0.34596848487854004,
                -0.43594008684158325
            ]
        },
        {
            "name" : "Light.003",
            "rotation" : [
                0.3120088577270508,
                0.13076725602149963,
                -0.07289959490299225,
                0.9382089972496033
            ],
            "scale" : [
                0.04999999701976776,
                0.04999999701976776,
                0.04999999701976776
            ],
            "translation" : [
                0.539516270160675,
                0.34596848487854004,
                0.0023462288081645966
            ]
        },
        {
            "name" : "Light.004",
            "rotation" : [
                0.3120088577270508,
                0.13076725602149963,
                -0.07289959490299225,
                0.9382089972496033
            ],
            "scale" : [
                0.04999999701976776,
                0.04999999701976776,
                0.04999999701976776
            ],
            "translation" : [
                -0.5275062918663025,
                0.34596848487854004,
                0.002346169203519821
            ]
        },
        {
            "name" : "Light.005",
            "rotation" : [
                0.3120088577270508,
                0.13076725602149963,
                -0.07289959490299225,
                0.9382089972496033
            ],
            "scale" : [
                0.04999999701976776,
                0.04999999701976776,
                0.04999999701976776
            ],
            "translation" : [
                0.05133754387497902,
                0.024068370461463928,
                0.4240557551383972
            ]
        },
        {
            "name" : "Light.006",
            "rotation" : [
                0.3120088577270508,
                0.13076725602149963,
                -0.07289959490299225,
                0.9382089972496033
            ],
            "scale" : [
                0.04999999701976776,
                0.04999999701976776,
                0.04999999701976776
            ],
            "translation" : [
                0.539516270160675,
                0.04325856268405914,
                0.0023462288081645966
            ]
        },
        {
            "name" : "Light.007",
            "rotation" : [
                0.3120088577270508,
                0.13076725602149963,
                -0.07289959490299225,
                0.9382089972496033
            ],
            "scale" : [
                0.04999999701976776,
                0.04999999701976776,
                0.04999999701976776
            ],
            "translation" : [
                0.05133757367730141,
                0.07366527616977692,
                -0.43594008684158325
            ]
        },
        {
            "name" : "Light.008",
            "rotation" : [
                0.3120088577270508,
                0.13076725602149963,
                -0.07289959490299225,
                0.9382089972496033
            ],
            "scale" : [
                0.04999999701976776,
                0.04999999701976776,
                0.04999999701976776
            ],
            "translation" : [
                -0.5275062918663025,
                0.04119791090488434,
                0.002346169203519821
            ]
        },
        {
            "name" : "Light",
            "rotation" : [
                0.16907575726509094,
                0.7558803558349609,
                -0.27217137813568115,
                0.570947527885437
            ],
            "translation" : [
                4.076245307922363,
                5.903861999511719,
                -1.0054539442062378
            ]
        },
        {
            "name" : "Camera",
            "rotation" : [
                0.483536034822464,
                0.33687159419059753,
                -0.20870360732078552,
                0.7804827094078064
            ],
            "translation" : [
                7.358891487121582,
                4.958309173583984,
                6.925790786743164
            ]
        }
    ],
    "materials" : [
        {
            "doubleSided" : true,
            "name" : "Material.001",
            "pbrMetallicRoughness" : {
                "baseColorTexture" : {
                    "index" : 0,
                    "texCoord" : 0
                },
                "metallicFactor" : 0,
                "roughnessFactor" : 0.5
            }
        },
        {
            "doubleSided" : true,
            "name" : "Material.002",
            "pbrMetallicRoughness" : {
                "baseColorTexture" : {
                    "index" : 1,
                    "texCoord" : 0
                },
                "metallicFactor" : 0,
                "roughnessFactor" : 0.5
            }
        },
        {
            "doubleSided" : true,
            "name" : "Material.003",
            "pbrMetallicRoughness" : {
                "baseColorTexture" : {
                    "index" : 2,
                    "texCoord" : 0
                },
                "metallicFactor" : 0,
                "roughnessFactor" : 0.5
            }
        },
        {
            "doubleSided" : true,
            "name" : "Material.004",
            "pbrMetallicRoughness" : {
                "baseColorTexture" : {
                    "index" : 3,
                    "texCoord" : 0
                },
                "metallicFactor" : 0,
                "roughnessFactor" : 0.5
            }
        },
        {
            "doubleSided" : true,
            "name" : "Material.005",
            "pbrMetallicRoughness" : {
                "baseColorTexture" : {
                    "index" : 4,
                    "texCoord" : 0
                },
                "metallicFactor" : 0,
                "roughnessFactor" : 0.5
            }
        },
        {
            "doubleSided" : true,
            "name" : "Material.006",
            "pbrMetallicRoughness" : {
                "baseColorTexture" : {
                    "index" : 5,
                    "texCoord" : 0
                },
                "metallicFactor" : 0,
                "roughnessFactor" : 0.5
            }
        },
        {
            "doubleSided" : true,
            "name" : "Material.007",
            "pbrMetallicRoughness" : {
                "baseColorTexture" : {
                    "index" : 6,
                    "texCoord" : 0
                },
                "metallicFactor" : 0,
                "roughnessFactor" : 0.5
            }
        }
    ],
    "meshes" : [
        {
            "name" : "Cube.001",
            "primitives" : [
                {
                    "attributes" : {
                        "POSITION" : 0,
                        "NORMAL" : 1,
                        "TEXCOORD_0" : 2
                    },
                    "indices" : 3,
                    "material" : 0
                },
                {
                    "attributes" : {
                        "POSITION" : 4,
                        "NORMAL" : 5,
                        "TEXCOORD_0" : 6
                    },
                    "indices" : 7,
                    "material" : 1
                },
                {
                    "attributes" : {
                        "POSITION" : 8,
                        "NORMAL" : 9,
                        "TEXCOORD_0" : 10
                    },
                    "indices" : 11,
                    "material" : 2
                },
                {
                    "attributes" : {
                        "POSITION" : 12,
                        "NORMAL" : 13,
                        "TEXCOORD_0" : 14
                    },
                    "indices" : 7,
                    "material" : 3
                },
                {
                    "attributes" : {
                        "POSITION" : 15,
                        "NORMAL" : 16,
                        "TEXCOORD_0" : 17
                    },
                    "indices" : 18,
                    "material" : 4
                },
                {
                    "attributes" : {
                        "POSITION" : 19,
                        "NORMAL" : 20,
                        "TEXCOORD_0" : 21
                    },
                    "indices" : 22,
                    "material" : 5
                },
                {
                    "attributes" : {
                        "POSITION" : 23,
                        "NORMAL" : 24,
                        "TEXCOORD_0" : 25
                    },
                    "indices" : 26,
                    "material" : 6
                }
            ]
        }
    ],
    "textures" : [
        {
            "sampler" : 0,
            "source" : 0
        },
        {
            "sampler" : 0,
            "source" : 1
        },
        {
            "sampler" : 0,
            "source" : 2
        },
        {
            "sampler" : 0,
            "source" : 3
        },
        {
            "sampler" : 0,
            "source" : 4
        },
        {
            "sampler" : 0,
            "source" : 5
        },
        {
            "sampler" : 0,
            "source" : 6
        }
    ],
    "images" : [
        {
            "bufferView" : 4,
            "mimeType" : "image/png",
            "name" : "panel"
        },
        {
            "bufferView" : 9,
            "mimeType" : "image/png",
            "name" : "filler"
        },
        {
            "bufferView" : 14,
            "mimeType" : "image/png",
            "name" : "socket"
        },
        {
            "bufferView" : 18,
            "mimeType" : "image/png",
            "name" : "lcd"
        },
        {
            "bufferView" : 23,
            "mimeType" : "image/png",
            "name" : "base"
        },
        {
            "bufferView" : 28,
            "mimeType" : "image/png",
            "name" : "switch"
        },
        {
            "bufferView" : 33,
            "mimeType" : "image/png",
            "name" : "fuse"
        }
    ],
    "accessors" : [
        {
            "bufferView" : 0,
            "componentType" : 5126,
            "count" : 110,
            "max" : [
                0.8544014096260071,
                1.399999976158142,
                0.8435163497924805
            ],
            "min" : [
                -1.020018219947815,
                1,
                -0.8435441851615906
            ],
            "type" : "VEC3"
        },
        {
            "bufferView" : 1,
            "componentType" : 5126,
            "count" : 110,
            "type" : "VEC3"
        },
        {
            "bufferView" : 2,
            "componentType" : 5126,
            "count" : 110,
            "type" : "VEC2"
        },
        {
            "bufferView" : 3,
            "componentType" : 5123,
            "count" : 234,
            "type" : "SCALAR"
        },
        {
            "bufferView" : 5,
            "componentType" : 5126,
            "count" : 4,
            "max" : [
                0.789997935295105,
                1.399999976158142,
                0.8007720708847046
            ],
            "min" : [
                0.06438522785902023,
                1.399999976158142,
                0.3434080481529236
            ],
            "type" : "VEC3"
        },
        {
            "bufferView" : 6,
            "componentType" : 5126,
            "count" : 4,
            "type" : "VEC3"
        },
        {
            "bufferView" : 7,
            "componentType" : 5126,
            "count" : 4,
            "type" : "VEC2"
        },
        {
            "bufferView" : 8,
            "componentType" : 5123,
            "count" : 6,
            "type" : "SCALAR"
        },
        {
            "bufferView" : 10,
            "componentType" : 5126,
            "count" : 48,
            "max" : [
                0.789997935295105,
                1.399999976158142,
                0.24151606857776642
            ],
            "min" : [
                -0.7903988361358643,
                1.399999976158142,
                -0.7852100729942322
            ],
            "type" : "VEC3"
        },
        {
            "bufferView" : 11,
            "componentType" : 5126,
            "count" : 48,
            "type" : "VEC3"
        },
        {
            "bufferView" : 12,
            "componentType" : 5126,
            "count" : 48,
            "type" : "VEC2"
        },
        {
            "bufferView" : 13,
            "componentType" : 5123,
            "count" : 60,
            "type" : "SCALAR"
        },
        {
            "bufferView" : 15,
            "componentType" : 5126,
            "count" : 4,
            "max" : [
                -0.03829987719655037,
                1.399999976158142,
                0.8007720708847046
            ],
            "min" : [
                -0.7903988361358643,
                1.399999976158142,
                0.3434080481529236
            ],
            "type" : "VEC3"
        },
        {
            "bufferView" : 16,
            "componentType" : 5126,
            "count" : 4,
            "type" : "VEC3"
        },
        {
            "bufferView" : 17,
            "componentType" : 5126,
            "count" : 4,
            "type" : "VEC2"
        },
        {
            "bufferView" : 19,
            "componentType" : 5126,
            "count" : 41831,
            "max" : [
                1.0206117630004883,
                1.4021373987197876,
                1.0076082944869995
            ],
            "min" : [
                -1.0206483602523804,
                -1,
                -1.0076361894607544
            ],
            "type" : "VEC3"
        },
        {
            "bufferView" : 20,
            "componentType" : 5126,
            "count" : 41831,
            "type" : "VEC3"
        },
        {
            "bufferView" : 21,
            "componentType" : 5126,
            "count" : 41831,
            "type" : "VEC2"
        },
        {
            "bufferView" : 22,
            "componentType" : 5123,
            "count" : 50730,
            "type" : "SCALAR"
        },
        {
            "bufferView" : 24,
            "componentType" : 5126,
            "count" : 8,
            "max" : [
                1,
                0.39823007583618164,
                -0.3822184205055237
            ],
            "min" : [
                1,
                -0.40707963705062866,
                -0.5208823680877686
            ],
            "type" : "VEC3"
        },
        {
            "bufferView" : 25,
            "componentType" : 5126,
            "count" : 8,
            "type" : "VEC3"
        },
        {
            "bufferView" : 26,
            "componentType" : 5126,
            "count" : 8,
            "type" : "VEC2"
        },
        {
            "bufferView" : 27,
            "componentType" : 5123,
            "count" : 18,
            "type" : "SCALAR"
        },
        {
            "bufferView" : 29,
            "componentType" : 5126,
            "count" : 4,
            "max" : [
                1,
                0.2495575249195099,
                -0.6979155540466309
            ],
            "min" : [
                1,
                -0.25221240520477295,
                -0.8208552598953247
            ],
            "type" : "VEC3"
        },
        {
            "bufferView" : 30,
            "componentType" : 5126,
            "count" : 4,
            "type" : "VEC3"
        },
        {
            "bufferView" : 31,
            "componentType" : 5126,
            "count" : 4,
            "type" : "VEC2"
        },
        {
            "bufferView" : 32,
            "componentType" : 5123,
            "count" : 6,
            "type" : "SCALAR"
        }
    ],
    "bufferViews" : [
        {
            "buffer" : 0,
            "byteLength" : 1320,
            "byteOffset" : 0
        },
        {
            "buffer" : 0,
            "byteLength" : 1320,
            "byteOffset" : 1320
        },
        {
            "buffer" : 0,
            "byteLength" : 880,
            "byteOffset" : 2640
        },
        {
            "buffer" : 0,
            "byteLength" : 468,
            "byteOffset" : 3520
        },
        {
            "buffer" : 0,
            "byteLength" : 33026,
            "byteOffset" : 3988
        },
        {
            "buffer" : 0,
            "byteLength" : 48,
            "byteOffset" : 37016
        },
        {
            "buffer" : 0,
            "byteLength" : 48,
            "byteOffset" : 37064
        },
        {
            "buffer" : 0,
            "byteLength" : 32,
            "byteOffset" : 37112
        },
        {
            "buffer" : 0,
            "byteLength" : 12,
            "byteOffset" : 37144
        },
        {
            "buffer" : 0,
            "byteLength" : 22736,
            "byteOffset" : 37156
        },
        {
            "buffer" : 0,
            "byteLength" : 576,
            "byteOffset" : 59892
        },
        {
            "buffer" : 0,
            "byteLength" : 576,
            "byteOffset" : 60468
        },
        {
            "buffer" : 0,
            "byteLength" : 384,
            "byteOffset" : 61044
        },
        {
            "buffer" : 0,
            "byteLength" : 120,
            "byteOffset" : 61428
        },
        {
            "buffer" : 0,
            "byteLength" : 12416,
            "byteOffset" : 61548
        },
        {
            "buffer" : 0,
            "byteLength" : 48,
            "byteOffset" : 73964
        },
        {
            "buffer" : 0,
            "byteLength" : 48,
            "byteOffset" : 74012
        },
        {
            "buffer" : 0,
            "byteLength" : 32,
            "byteOffset" : 74060
        },
        {
            "buffer" : 0,
            "byteLength" : 375551,
            "byteOffset" : 74092
        },
        {
            "buffer" : 0,
            "byteLength" : 501972,
            "byteOffset" : 449644
        },
        {
            "buffer" : 0,
            "byteLength" : 501972,
            "byteOffset" : 951616
        },
        {
            "buffer" : 0,
            "byteLength" : 334648,
            "byteOffset" : 1453588
        },
        {
            "buffer" : 0,
            "byteLength" : 101460,
            "byteOffset" : 1788236
        },
        {
            "buffer" : 0,
            "byteLength" : 2091,
            "byteOffset" : 1889696
        },
        {
            "buffer" : 0,
            "byteLength" : 96,
            "byteOffset" : 1891788
        },
        {
            "buffer" : 0,
            "byteLength" : 96,
            "byteOffset" : 1891884
        },
        {
            "buffer" : 0,
            "byteLength" : 64,
            "byteOffset" : 1891980
        },
        {
            "buffer" : 0,
            "byteLength" : 36,
            "byteOffset" : 1892044
        },
        {
            "buffer" : 0,
            "byteLength" : 141224,
            "byteOffset" : 1892080
        },
        {
            "buffer" : 0,
            "byteLength" : 48,
            "byteOffset" : 2033304
        },
        {
            "buffer" : 0,
            "byteLength" : 48,
            "byteOffset" : 2033352
        },
        {
            "buffer" : 0,
            "byteLength" : 32,
            "byteOffset" : 2033400
        },
        {
            "buffer" : 0,
            "byteLength" : 12,
            "byteOffset" : 2033432
        },
        {
            "buffer" : 0,
            "byteLength" : 370196,
            "byteOffset" : 2033444
        }
    ],
    "samplers" : [
        {
            "magFilter" : 9729,
            "minFilter" : 9986
        }
    ],
    "buffers" : [
        {
            "byteLength" : 2403640,
            "uri" : "data:application/octet-stream;base64,"
        }
    ]
}
